<svg xmlns="http://www.w3.org/2000/svg" width="15" height="15" viewBox="0 0 15 15" fill="#eb0573">
  <path d="M4.89346 9.0627C3.71807 9.13828 2.65137 9.58594 2.04609 11.1809C1.97725 11.3628 1.81172 11.4732 1.61865 11.4732C1.29316 11.4732 0.286816 10.6626 0 10.4669C0.000292969 12.8795 1.11152 15 3.75029 15C5.97275 15 7.50029 13.7177 7.50029 11.4788C7.50029 11.3877 7.48125 11.3007 7.47187 11.2113L4.89346 9.0627ZM13.415 0C12.9709 0 12.5546 0.196582 12.237 0.481934C6.24844 5.83154 5.62529 5.95723 5.62529 7.53193C5.62529 7.9333 5.72051 8.31592 5.88105 8.66572L7.75078 10.2237C7.96201 10.2765 8.17969 10.3125 8.40674 10.3125C10.2264 10.3125 11.2811 8.98037 14.5931 2.79902C14.8093 2.37861 15.0003 1.92451 15.0003 1.45166C15.0003 0.604687 14.2386 0 13.415 0Z"/>
</svg>