<svg xmlns="http://www.w3.org/2000/svg" width="14" height="15" viewBox="0 0 14 15" fill="#eb0573">
  <path d="M13.3359 2.38412V10.8597C13.3359 12.3448 12.1284 13.5524 10.6433 13.5524C9.16565 13.5524 7.95057 12.3448 7.95057 10.8597C7.95057 9.38211 9.16565 8.17452 10.6433 8.17452C11.2733 8.17452 11.8358 8.39204 12.2934 8.75206V4.28925L5.38539 6.25439V12.3073C5.38539 13.7924 4.17028 15 2.69268 15C1.20758 15 0 13.7924 0 12.3073C0 10.8297 1.20758 9.62212 2.69268 9.62212C3.31523 9.62212 3.87777 9.83964 4.3353 10.1922V3.5617C4.3353 2.45913 5.00285 1.60407 6.06044 1.31905L10.3957 0.133963C11.2733 -0.106054 12.0159 -0.0235482 12.5409 0.38148C13.0734 0.779008 13.3359 1.45405 13.3359 2.38412Z" />
</svg>