<svg xmlns="http://www.w3.org/2000/svg" width="19" height="15" viewBox="0 0 19 15" fill="#eb0573">
  <path d="M18.7302 12.7028C18.4841 12.1053 17.7987 11.8211 17.2011 12.0701L16.5538 12.3396L15.4202 9.35471C16.8233 8.32948 17.3183 6.41669 16.4307 4.87884L13.894 0.470334C13.6597 0.0631695 13.1588 -0.106726 12.7223 0.0719572L9.37421 1.46042L6.02609 0.0719572C5.58963 -0.109656 5.08873 0.0631695 4.85439 0.470334L2.31767 4.87884C1.43304 6.41669 1.92515 8.32948 3.32826 9.35179L2.19464 12.3367L1.54728 12.0672C0.949715 11.8182 0.267203 12.1023 0.0182173 12.6999C-0.0315798 12.82 0.0240757 12.9577 0.144175 13.0075L4.89833 14.9818C5.01843 15.0316 5.15317 14.9759 5.20297 14.8558C5.44903 14.2583 5.16782 13.5728 4.57025 13.3238L3.92289 13.0543L5.07701 10.0197C5.2059 10.0343 5.33479 10.0577 5.46074 10.0577C6.97516 10.0577 8.37241 9.08815 8.7825 7.55909L9.37421 5.35045L9.96591 7.55909C10.376 9.08815 11.7733 10.0577 13.2877 10.0577C13.4136 10.0577 13.5425 10.0343 13.6714 10.0197L14.8226 13.0543L14.1752 13.3238C13.5777 13.5728 13.2935 14.2583 13.5425 14.8558C13.5923 14.9759 13.73 15.0316 13.8472 14.9818L18.6042 13.0075C18.7214 12.9577 18.78 12.8229 18.7302 12.7028ZM8.08241 4.74995L4.79873 3.38786L5.86791 1.53072L8.63604 2.67898L8.08241 4.74995ZM10.666 4.74995L10.1124 2.67898L12.8805 1.53072L13.9497 3.38786L10.666 4.74995Z"/>
</svg>