<svg xmlns="http://www.w3.org/2000/svg" width="14" height="15" viewBox="0 0 14 15" fill="#eb0573">
  <path d="M8.25 1.125C8.25 1.7475 7.7475 2.25 7.125 2.25C6.5025 2.25 6 1.7475 6 1.125C6 0.5025 6.5025 0 7.125 0C7.7475 0 8.25 0.5025 8.25 1.125ZM4.125 2.25C3.5025 2.25 3 2.7525 3 3.375C3 3.9975 3.5025 4.5 4.125 4.5C4.7475 4.5 5.25 3.9975 5.25 3.375C5.25 2.7525 4.7475 2.25 4.125 2.25ZM8.25 7.5L7.665 5.8125H9.885L11.505 5.0025C11.7825 4.875 11.895 4.53 11.7525 4.2525C11.625 3.975 11.28 3.855 11.0025 3.9975L10.3875 4.305L10.02 3.675C9.8025 3.1875 9.27 2.91 8.745 3.03L6.8925 3.4275C6.375 3.54 6 4.0125 6 4.5525V5.0775L4.1775 6.2925H4.185C4.125 6.345 4.0425 6.4125 3.9975 6.5025L3.33 7.83L1.995 8.4975C1.7175 8.625 1.605 8.9775 1.7475 9.255C1.845 9.45 2.0475 9.5625 2.25 9.5625C2.3325 9.5625 2.4225 9.5475 2.505 9.5025L4.17 8.67L4.95 7.125L6 8.25C5.25 10.5 0 13.5 0 13.5C0 13.5 3 15 6.75 15C10.5 15 13.5 13.5 13.5 13.5C13.5 13.5 9.75 10.5 8.25 7.5ZM10.3875 6.8175L10.1475 6.9375H9.2475L9.2925 7.0575C9.6825 7.83 10.2525 8.625 10.875 9.33L10.4775 6.7725L10.3875 6.8175Z" />
</svg>