<svg version="1.1" id="Layer_1" xmlns="http://www.w3.org/2000/svg" xmlns:xlink="http://www.w3.org/1999/xlink" x="0px" y="0px"
	 viewBox="0 0 50 50" style="enable-background:new 0 0 50 50;" xml:space="preserve">
<style type="text/css">
	.st0{fill:#DD1B16;}
</style>
<g>
	<path class="st0" d="M24.92,12.77L24.92,12.77L24.92,12.77L24.92,12.77L24.92,12.77l-8.64,19.22l3.22-0.06l1.73-4.33h3.69l0.01,0v0
		h4.05l1.9,4.4l3.08,0.06L24.92,12.77L24.92,12.77z M27.86,25.03h-2.94v0l0,0h-2.55l2.56-6.07L27.86,25.03z"/>
	<path class="st0" d="M45,0H5C2.24,0,0,2.24,0,5V45c0,2.76,2.24,5,5,5H45c2.76,0,5-2.24,5-5V5C50,2.24,47.76,0,45,0z M36.81,33.38
		l-11.84,6.56l-11.78-6.48l-2.21-18.31l13.98-4.92l14.06,4.83L36.81,33.38z"/>
</g>
</svg>
