<svg version="1.1" id="Layer_1" xmlns="http://www.w3.org/2000/svg" xmlns:xlink="http://www.w3.org/1999/xlink" x="0px" y="0px"
	 viewBox="0 0 50 50" style="enable-background:new 0 0 50 50;" xml:space="preserve">
<style type="text/css">
	.st0{fill:#00BBE9;}
</style>
<path class="st0" d="M45,0H5C2.24,0,0,2.24,0,5V45c0,2.76,2.24,5,5,5H45c2.76,0,5-2.24,5-5V5C50,2.24,47.76,0,45,0z M44.73,17.36
	c-0.54,0.93-1.07,1.87-1.61,2.8c-0.53,0.91-1.05,1.83-1.58,2.74c-0.4,0.69-0.8,1.37-1.2,2.05c-0.48,0.81-0.96,1.61-1.44,2.42
	c-0.39,0.64-0.78,1.28-1.24,1.87c-0.3,0.39-0.6,0.76-0.95,1.11c-0.09,0.09-0.17,0.2-0.26,0.29c-0.55,0.53-1.12,1.04-1.78,1.44
	c-0.29,0.18-0.6,0.32-0.93,0.42c-0.18,0.05-0.35,0.07-0.54,0.07c-1.39,0-2.78,0-4.17,0c-1.39,0-2.78,0-4.17,0
	c-0.29,0-0.56-0.06-0.82-0.19c-0.3-0.15-0.58-0.33-0.83-0.56c-0.54-0.48-0.95-1.06-1.31-1.68c-0.41-0.7-0.71-1.45-0.98-2.21
	c-0.3-0.85-0.55-1.72-0.78-2.59c-0.35-1.3-0.64-2.61-0.92-3.93c-0.06-0.29-0.12-0.58-0.18-0.88c-0.01-0.06-0.03-0.11-0.04-0.17
	c-0.01-0.03-0.04-0.04-0.07-0.03c-0.03,0.01-0.05,0.03-0.07,0.05c-0.13,0.13-0.25,0.26-0.37,0.4c-0.18,0.2-0.36,0.4-0.54,0.6
	c-0.58,0.64-1.14,1.3-1.64,2.01c-0.27,0.38-0.47,0.8-0.56,1.27c-0.16,0.81-0.33,1.61-0.55,2.4c-0.24,0.89-0.54,1.77-0.96,2.6
	c-0.3,0.6-0.66,1.16-1.12,1.66c-0.48,0.53-1.05,0.96-1.72,1.24c-0.43,0.18-0.87,0.28-1.33,0.34c-0.07,0.01-0.15,0.01-0.22,0.01
	c-1.48,0-2.95,0-4.43,0c-0.22,0-0.24-0.03-0.18-0.25c0.12-0.4,0.24-0.81,0.37-1.21c0.39-1.22,0.82-2.43,1.31-3.61
	c0.31-0.76,0.63-1.52,1-2.25c0.12-0.24,0.23-0.49,0.35-0.73c0.57-1.12,1.19-2.2,1.91-3.23c0.33-0.47,0.67-0.91,1.04-1.35
	c0.22-0.26,0.45-0.51,0.7-0.75c0.38-0.38,0.78-0.74,1.23-1.05c0.6-0.42,1.24-0.77,1.94-0.98c0.22-0.07,0.45-0.11,0.69-0.11
	c2.75,0,5.5,0,8.25,0c0.14,0,0.28-0.01,0.41-0.02c0.19-0.02,0.38,0.02,0.56,0.06c0.53,0.11,0.99,0.36,1.42,0.7
	c0.51,0.4,0.9,0.9,1.24,1.45c0.39,0.63,0.67,1.31,0.93,2c0.27,0.72,0.5,1.46,0.72,2.2c0.21,0.75,0.41,1.5,0.59,2.26
	c0.22,0.96,0.42,1.92,0.61,2.88c0.03,0.14,0.05,0.27,0.07,0.41c0.01,0.08,0.03,0.16,0.05,0.24c0,0.02,0.02,0.04,0.04,0.05
	c0.02,0.01,0.04-0.01,0.05-0.03c0.03-0.06,0.06-0.12,0.08-0.18c0.16-0.41,0.33-0.81,0.49-1.22c0.37-0.94,0.71-1.9,1.03-2.85
	c0.27-0.78,0.51-1.56,0.76-2.35c0.16-0.5,0.31-1,0.47-1.5c0.14-0.41,0.31-0.82,0.5-1.21c0.25-0.49,0.54-0.95,0.9-1.37
	c0.46-0.54,1-1,1.63-1.33c0.52-0.26,1.06-0.45,1.64-0.51c0.18-0.02,0.36-0.03,0.54-0.03c1.94,0,3.87,0,5.81,0
	c0.08,0,0.16,0,0.24,0.01c0.05,0,0.07,0.05,0.06,0.1C44.79,17.24,44.76,17.3,44.73,17.36z"/>
</svg>
