<svg version="1.1" id="Layer_1" xmlns="http://www.w3.org/2000/svg" xmlns:xlink="http://www.w3.org/1999/xlink" x="0px" y="0px"
	 viewBox="0 0 50 50" style="enable-background:new 0 0 50 50;" xml:space="preserve">
<style type="text/css">
	.st0{fill:url(#SVGID_1_);}
	.st1{fill:url(#SVGID_00000092429904216186827650000004524362427295487403_);}
</style>
<g>
	<linearGradient id="SVGID_1_" gradientUnits="userSpaceOnUse" x1="18.0469" y1="21.4791" x2="20.3911" y2="21.4791">
		<stop  offset="0" style="stop-color:#B2E198"/>
		<stop  offset="1" style="stop-color:#04A171"/>
	</linearGradient>
	<path class="st0" d="M18.77,22.73c0.25-0.42,0.52-0.84,0.79-1.26c0.27-0.42,0.55-0.83,0.83-1.23c-0.83,0.06-1.61,0.14-2.34,0.25
		C18.25,21.21,18.5,21.96,18.77,22.73z"/>
	
		<linearGradient id="SVGID_00000078009218766195672860000003731859236987147179_" gradientUnits="userSpaceOnUse" x1="0" y1="25" x2="50" y2="25">
		<stop  offset="0" style="stop-color:#B2E198"/>
		<stop  offset="1" style="stop-color:#04A171"/>
	</linearGradient>
	<path style="fill:url(#SVGID_00000078009218766195672860000003731859236987147179_);" d="M45,0H5C2.24,0,0,2.24,0,5V45
		c0,2.76,2.24,5,5,5H45c2.76,0,5-2.24,5-5V5C50,2.24,47.76,0,45,0z M37.11,29.97c-0.1,0.04-0.2,0.06-0.3,0.06
		c-0.34,0-0.66-0.2-0.79-0.54c-0.17-0.43,0.05-0.92,0.48-1.09c1.92-0.75,3.05-1.71,3.1-2.64c0.06-1.09-1.36-2.37-3.8-3.41
		c-2.77-1.18-6.51-1.95-10.54-2.16c-0.81-0.04-1.58-0.06-2.31-0.06c-0.14,0-0.28,0-0.42,0c-0.52,0.7-1.04,1.45-1.56,2.24
		c-0.5,0.78-0.97,1.56-1.41,2.34c0.35,0.82,0.74,1.64,1.16,2.46c1.83,3.6,4.05,6.71,6.26,8.76c1.94,1.81,3.68,2.59,4.66,2.09
		c0.93-0.47,1.33-2.22,1.08-4.68c-0.29-2.79-1.36-6.23-3.02-9.69c-0.2-0.42-0.03-0.92,0.39-1.12c0.42-0.2,0.92-0.03,1.12,0.39
		c1.74,3.62,2.87,7.26,3.17,10.24c0.15,1.52,0.09,2.81-0.19,3.85c-0.32,1.21-0.93,2.05-1.81,2.5c-0.44,0.22-0.91,0.33-1.42,0.33
		c-0.55,0-1.15-0.13-1.79-0.39c-1.05-0.43-2.18-1.2-3.36-2.3c-2.35-2.18-4.69-5.46-6.61-9.23c-0.23-0.44-0.44-0.89-0.65-1.33
		c-0.95,1.96-1.66,3.86-2.05,5.57c-0.59,2.58-0.4,4.48,0.52,5.08c0.86,0.56,2.55,0.06,4.5-1.34c0.38-0.27,0.9-0.18,1.17,0.2
		c0.27,0.38,0.18,0.9-0.2,1.17c-1.99,1.42-3.49,1.88-4.61,1.88c-0.77,0-1.36-0.22-1.79-0.5c-0.85-0.55-1.38-1.5-1.56-2.81
		c-0.15-1.12-0.05-2.49,0.31-4.06c0.51-2.2,1.48-4.68,2.82-7.19c-0.53-1.31-0.97-2.61-1.32-3.85c-3.72,0.78-5.91,2.16-5.98,3.46
		c-0.05,0.93,0.97,2,2.8,2.94c0.41,0.21,0.58,0.72,0.36,1.13c-0.21,0.41-0.72,0.58-1.13,0.36c-3.17-1.64-3.77-3.36-3.71-4.52
		c0.06-1.21,0.9-2.94,4.51-4.24c0.83-0.3,1.75-0.55,2.74-0.76c-0.15-0.68-0.26-1.34-0.33-1.97c-0.19-1.6-0.16-2.97,0.11-4.07
		c0.32-1.28,0.94-2.17,1.84-2.63c0.35-0.18,0.75-0.29,1.16-0.32c1.35-0.1,2.92,0.58,4.67,2.03c0.36,0.3,0.41,0.83,0.11,1.19
		c-0.3,0.36-0.83,0.41-1.19,0.11c-1.36-1.13-2.59-1.72-3.46-1.65c-0.2,0.01-0.37,0.06-0.52,0.14c-0.98,0.5-1.37,2.37-1.05,5
		c0.07,0.6,0.18,1.23,0.32,1.88c1.27-0.19,2.63-0.31,4.04-0.36c3.56-4.58,7.47-7.55,10.26-7.66c0.74-0.03,1.39,0.14,1.94,0.5
		c1.05,0.68,2.14,2.34,1.36,6.31c-0.09,0.46-0.53,0.75-0.99,0.66c-0.46-0.09-0.75-0.53-0.66-0.99c0.45-2.31,0.22-4.02-0.63-4.57
		c-0.25-0.16-0.57-0.24-0.96-0.23c-1.81,0.07-4.92,2.12-8.15,5.96c0.48,0.01,0.98,0.03,1.49,0.05c4.22,0.22,8.17,1.03,11.11,2.29
		c1.48,0.63,2.65,1.35,3.47,2.13c0.95,0.91,1.41,1.89,1.36,2.91C41.22,27.02,40.44,28.67,37.11,29.97z M26.94,25.22
		c0,1.02-0.82,1.84-1.84,1.84s-1.84-0.82-1.84-1.84s0.82-1.84,1.84-1.84S26.94,24.21,26.94,25.22z"/>
</g>
</svg>
