<svg version="1.1" id="Layer_1" xmlns="http://www.w3.org/2000/svg" xmlns:xlink="http://www.w3.org/1999/xlink" x="0px" y="0px"
	 viewBox="0 0 50 50" style="enable-background:new 0 0 50 50;" xml:space="preserve">
<style type="text/css">
	.st0{fill:#002A41;}
</style>
<g>
	<polygon class="st0" points="33.26,33.01 33.26,28.25 29.09,30.63 	"/>
	<polygon class="st0" points="33.26,16.62 28.76,19.18 33.26,21.75 	"/>
	<polygon class="st0" points="16.74,16.27 16.74,21.56 21.38,18.92 	"/>
	<polygon class="st0" points="16.74,33.34 21.05,30.89 16.74,28.43 	"/>
	<polygon class="st0" points="18.71,25 25.05,28.61 31.16,25 25.24,21.29 	"/>
	<path class="st0" d="M45,0H5C2.24,0,0,2.24,0,5V45c0,2.76,2.24,5,5,5H45c2.76,0,5-2.24,5-5V5C50,2.24,47.76,0,45,0z M37.03,23.9
		v2.2L37,40l-11.82-6.76L13,40l-0.03-13.72v-2.57L13,10l12.18,6.75l0.05-0.03v0.06L37.03,10V23.9z"/>
</g>
</svg>
