<svg version="1.1" id="Layer_1" xmlns="http://www.w3.org/2000/svg" xmlns:xlink="http://www.w3.org/1999/xlink" x="0px" y="0px"
	 viewBox="0 0 50 50" style="enable-background:new 0 0 50 50;" xml:space="preserve">
<style type="text/css">
	.st0{fill:#2684FF;}
</style>
<g>
	<polygon class="st0" points="22.14,29.06 27.9,29.06 29.3,20.91 20.58,20.91 	"/>
	<path class="st0" d="M45,0H5C2.24,0,0,2.24,0,5V45c0,2.76,2.24,5,5,5H45c2.76,0,5-2.24,5-5V5C50,2.24,47.76,0,45,0z M35.08,36.72
		c-0.07,0.43-0.45,0.75-0.89,0.75H16.1c-0.59,0-1.08-0.43-1.18-1.01l-3.77-22.9c-0.01-0.05-0.01-0.1-0.01-0.15
		c0.01-0.49,0.41-0.88,0.9-0.88l25.93,0c0.05,0,0.1,0,0.15,0.01c0.48,0.08,0.81,0.53,0.73,1.02L35.08,36.72z"/>
</g>
</svg>
