<svg version="1.1" id="Layer_1" xmlns="http://www.w3.org/2000/svg" xmlns:xlink="http://www.w3.org/1999/xlink" x="0px" y="0px"
	 viewBox="0 0 50 50" style="enable-background:new 0 0 50 50;" xml:space="preserve">
<style type="text/css">
	.st0{fill:#563D7C;}
</style>
<g>
	<path class="st0" d="M28.6,21.3c0.8-0.6,1.1-1.5,1.1-2.7c0-0.7-0.1-1.3-0.4-1.7s-0.6-0.8-1-1s-0.9-0.4-1.4-0.5
		c-0.5-0.1-1.1-0.2-1.7-0.2h-6.1v7h6.6C26.9,22.2,27.8,21.9,28.6,21.3z"/>
	<path class="st0" d="M45,0H5C2.2,0,0,2.2,0,5v40c0,2.8,2.2,5,5,5h40c2.8,0,5-2.2,5-5V5C50,2.2,47.8,0,45,0z M36.6,35.1
		c-0.6,1.1-1.4,2-2.4,2.7c-1,0.7-2.1,1.2-3.4,1.5c-1.3,0.3-2.6,0.5-3.9,0.5H12.6V10.1h14c1.4,0,2.7,0.1,3.9,0.4
		c1.2,0.2,2.2,0.7,3,1.2c0.8,0.6,1.5,1.3,1.9,2.3c0.5,1,0.7,2.1,0.7,3.5c0,1.5-0.3,2.8-1,3.8s-1.7,1.8-3,2.5
		c1.8,0.5,3.2,1.4,4.1,2.8c0.9,1.3,1.3,2.9,1.3,4.8C37.4,32.7,37.2,34,36.6,35.1z"/>
	<path class="st0" d="M26.2,26.6h-7.1v8.2h7c0.6,0,1.2-0.1,1.8-0.2c0.6-0.1,1.1-0.3,1.5-0.6c0.4-0.3,0.8-0.7,1.1-1.2
		s0.4-1.1,0.4-1.9c0-1.5-0.4-2.6-1.3-3.3C28.8,27,27.6,26.6,26.2,26.6z"/>
</g>
</svg>
