<svg version="1.1" id="Layer_1" xmlns="http://www.w3.org/2000/svg" xmlns:xlink="http://www.w3.org/1999/xlink" x="0px" y="0px"
	 viewBox="0 0 50 50" style="enable-background:new 0 0 50 50;" xml:space="preserve">
<style type="text/css">
	.st0{fill:#2BA977;}
</style>
<g>
	<path class="st0" d="M18.5,25.71c0,2.55,1.35,3.96,3.84,3.96c0.54,0,0.97-0.03,1.67-0.12v-7.71c-0.57-0.19-1.04-0.25-1.64-0.25
		C19.92,21.59,18.5,23.09,18.5,25.71z"/>
	<path class="st0" d="M45,0H5C2.24,0,0,2.24,0,5V45c0,2.76,2.24,5,5,5H45c2.76,0,5-2.24,5-5V5C50,2.24,47.76,0,45,0z M31.28,10.52
		h4.85v4.93h-4.85V10.52z M13.39,25.66c0-4.9,3.27-8.07,8.34-8.07c0.79,0,1.39,0.06,2.11,0.25v-7.32h4.85v22.23
		c-2.48,0.47-4.31,0.65-6.29,0.65C16.47,33.39,13.39,30.75,13.39,25.66z M36.61,29.31c0,3.83-0.29,5.68-1.13,7.26
		c-0.79,1.53-1.82,2.49-3.96,3.55l-4.5-2.12c2.14-0.99,3.18-1.87,3.84-3.22c0.69-1.37,0.91-2.96,0.91-7.14v-9.47h4.84V29.31z"/>
</g>
</svg>
