<svg version="1.1" id="Layer_1" xmlns="http://www.w3.org/2000/svg" xmlns:xlink="http://www.w3.org/1999/xlink" x="0px" y="0px"
	 viewBox="0 0 50 50" style="enable-background:new 0 0 50 50;" xml:space="preserve">
<style type="text/css">
	.st0{fill:#066DA5;}
</style>
<path class="st0" d="M45,0H5C2.24,0,0,2.24,0,5v40c0,2.76,2.24,5,5,5h40c2.76,0,5-2.24,5-5V5C50,2.24,47.76,0,45,0z M27.37,20.41
	h3.74v3.44h-3.74V20.41z M22.96,12.15h3.74v3.44h-3.74V12.15z M22.96,16.28h3.74v3.44h-3.74V16.28z M22.96,20.41h3.74v3.44h-3.74
	V20.41z M18.54,16.28h3.74v3.44h-3.74V16.28z M18.54,20.41h3.74v3.44h-3.74V20.41z M14.13,16.28h3.74v3.44h-3.74V16.28z
	 M14.13,20.41h3.74v3.44h-3.74V20.41z M9.71,20.41h3.74v3.44H9.71V20.41z M42.96,22.6c-0.23,0.49-0.32,0.65-0.35,0.71
	c-1.34,2.59-3.96,2.61-5.17,2.59c-3.09,7.55-9.67,11.7-18.57,11.7c-4.11,0-7.25-1.28-9.35-3.79c-2.77-3.3-2.77-7.62-2.53-9
	l0.05-0.29h24.56c1.29,0.03,2.25-0.34,2.74-0.61c-0.49-0.75-0.64-1.62-0.69-2.1c-0.11-1.37,0.23-2.81,0.9-3.84l0.53-0.8l0.79,0.54
	c1.37,1.08,2.13,2.28,2.31,3.65c1.45-0.28,3.32-0.08,4.15,0.46l0.75,0.51L42.96,22.6z"/>
</svg>
