<svg version="1.1" id="Layer_1" xmlns="http://www.w3.org/2000/svg" xmlns:xlink="http://www.w3.org/1999/xlink" x="0px" y="0px"
	 viewBox="0 0 50 50" style="enable-background:new 0 0 50 50;" xml:space="preserve">
<style type="text/css">
	.st0{fill:#E05C43;}
</style>
<g>
	<path class="st0" d="M22.55,25.54c1.91-0.51,3.55-1.51,4.96-2.88c0.67-0.65,1.18-1.43,1.5-2.31c0.41-1.11,0.52-2.23-0.01-3.34
		c-0.55-1.14-1.46-1.52-2.64-1.09c-0.37,0.13-0.71,0.32-1.04,0.55c-0.64,0.45-1.17,1-1.63,1.62c-1.48,2.02-2.09,4.33-2.27,6.78
		c-0.04,0.81-0.04,0.81,0.76,0.73C22.3,25.6,22.43,25.58,22.55,25.54z"/>
	<path class="st0" d="M45,0H5C2.24,0,0,2.24,0,5V45c0,2.76,2.24,5,5,5H45c2.76,0,5-2.24,5-5V5C50,2.24,47.76,0,45,0z M43.19,31.1
		c-4.07,4.34-8.94,7.3-14.82,8.44c-2.45,0.48-4.93,0.57-7.3-0.34c-3.69-1.42-5.99-4.05-6.6-8.01c-0.07-0.48-0.25-0.61-0.69-0.64
		c-1.88-0.13-3.75-0.41-5.56-0.97c-0.36-0.11-0.72-0.24-1.05-0.42c-0.63-0.34-0.91-0.96-0.78-1.67c0.17-0.98,0.68-1.79,1.33-2.51
		c0.37-0.41,0.85-0.51,1.38-0.32c0.35,0.12,0.63,0.35,0.93,0.55c1.3,0.9,2.75,0.86,4.22,0.67c0.26-0.03,0.19-0.25,0.21-0.41
		c0.36-2.68,0.98-5.28,2.15-7.73c1.06-2.19,2.41-4.17,4.39-5.63c2.85-2.11,6.04-2.58,9.29-1.36c3.53,1.33,4.82,3.84,4.57,7.54
		c-0.2,2.95-1.79,5.21-3.9,7.14c-2.44,2.24-5.3,3.81-8.36,5.01c-0.39,0.15-0.49,0.34-0.43,0.73c0.15,1.01,0.78,1.62,1.68,1.97
		c0.76,0.3,1.56,0.33,2.75,0.32c2.58-0.05,5.24-1.08,7.79-2.46c1.83-0.99,3.54-2.16,5.16-3.46c0.87-0.7,1.48-0.66,2.26,0.14
		c0.45,0.46,0.9,0.92,1.34,1.39C43.78,29.76,43.81,30.44,43.19,31.1z"/>
</g>
</svg>
