<svg version="1.1" id="Layer_1" xmlns="http://www.w3.org/2000/svg" xmlns:xlink="http://www.w3.org/1999/xlink" x="0px" y="0px"
	 viewBox="0 0 50 50" style="enable-background:new 0 0 50 50;" xml:space="preserve">
<style type="text/css">
	.st0{fill:#4B32C3;}
</style>
<g>
	<path class="st0" d="M35.07,18.99l-9.8-5.65c-0.17-0.1-0.38-0.1-0.55,0l-9.79,5.65c-0.17,0.1-0.28,0.28-0.29,0.48v11.3
		c0,0.2,0.12,0.38,0.29,0.48l9.8,5.65c0.17,0.1,0.38,0.1,0.55,0l9.79-5.65c0.17-0.1,0.29-0.28,0.29-0.48l0-11.3
		C35.36,19.27,35.24,19.09,35.07,18.99z M31.95,28.83c0,0.19-0.1,0.36-0.26,0.45l-6.43,3.71c-0.16,0.09-0.36,0.09-0.52,0l-6.43-3.7
		c-0.16-0.09-0.26-0.26-0.26-0.45V21.4c0-0.19,0.1-0.36,0.26-0.45v0l6.43-3.71c0.16-0.09,0.36-0.09,0.52,0l6.43,3.71
		c0.16,0.09,0.26,0.26,0.26,0.45V28.83z"/>
	<path class="st0" d="M45,0H5C2.24,0,0,2.24,0,5V45c0,2.76,2.24,5,5,5H45c2.76,0,5-2.24,5-5V5C50,2.24,47.76,0,45,0z M41.73,25.87
		l-7.69,13.28c-0.28,0.48-0.79,0.72-1.35,0.72H17.31c-0.56,0-1.07-0.25-1.35-0.73L8.27,25.89c-0.28-0.49-0.28-1.09,0-1.58
		l7.69-13.34c0.28-0.48,0.79-0.84,1.35-0.84h15.37c0.56,0,1.07,0.35,1.35,0.84l7.69,13.37v0C42.01,24.81,42.01,25.39,41.73,25.87z"
		/>
</g>
</svg>
