<svg version="1.1" id="Layer_1" xmlns="http://www.w3.org/2000/svg" xmlns:xlink="http://www.w3.org/1999/xlink" x="0px" y="0px"
	 viewBox="0 0 50 50" style="enable-background:new 0 0 50 50;" xml:space="preserve">
<style type="text/css">
	.st0{fill:#8E8E8E;}
</style>
<g>
	<path class="st0" d="M15.5,15.21c-4.71-0.07-8.09,3.42-8.29,8.61l0.01,0.02h15.79C22.91,18.81,19.74,15.24,15.5,15.21z"/>
	<path class="st0" d="M45,0H5C2.24,0,0,2.24,0,5V45c0,2.76,2.24,5,5,5H45c2.76,0,5-2.24,5-5V5C50,2.24,47.76,0,45,0z M24.66,25.31
		H7.2c-0.28,6.94,4.72,11.13,11.13,8.99c2.11-0.76,3.69-2.53,4.22-4.7c0.34-1.09,0.9-1.28,1.92-0.96c-0.35,2.69-1.91,5.08-4.23,6.47
		c-3.89,2.13-8.71,1.51-11.95-1.53c-1.56-1.75-2.5-3.97-2.68-6.31c0-0.38-0.13-0.74-0.22-1.09c-0.01-0.63-0.01-1.26-0.01-1.9l0,0
		l0.69-3.39c1.89-6.71,9.58-9.5,14.87-5.35C24.04,17.98,24.81,21.43,24.66,25.31z M41.53,34.59l-5.64-7.8l-0.82-1.09l-6.55,8.9
		c-0.55,1.07-1.81,1.57-2.95,1.16l8.43-11.32l-7.85-10.22c1.16-0.42,2.46,0.04,3.11,1.09l5.85,7.9L41,15.34
		c0.56-1.05,1.81-1.52,2.92-1.09l-3.04,4.04l-4.12,5.37c-0.45,0.4-0.49,1.09-0.09,1.54c0.03,0.03,0.06,0.06,0.09,0.09l7.86,10.49
		l0.02,0C43.44,36.22,42.11,35.71,41.53,34.59z"/>
</g>
</svg>
