<svg version="1.1" id="Layer_1" xmlns="http://www.w3.org/2000/svg" xmlns:xlink="http://www.w3.org/1999/xlink" x="0px" y="0px"
	 viewBox="0 0 50 50" style="enable-background:new 0 0 50 50;" xml:space="preserve">
<style type="text/css">
	.st0{fill:#BCBCBC;}
</style>
<path class="st0" d="M45,0H5C2.2,0,0,2.2,0,5v40c0,2.8,2.2,5,5,5h40c2.8,0,5-2.2,5-5V5C50,2.2,47.8,0,45,0z M30,20c2.7,0,5,2.2,5,5
	c0,2.7-2.2,5-5,5c-2.7,0-5-2.2-5-5v5v5c0,2.7-2.2,5-5,5c-2.7,0-5-2.2-5-5s2.2-5,5-5c-2.7,0-5-2.2-5-5c0-2.7,2.2-5,5-5
	c-2.7,0-5-2.2-5-5c0-2.7,2.2-5,5-5h5v0h5c2.7,0,5,2.2,5,5S32.7,20,30,20l-5,0v0v5C25,22.2,27.2,20,30,20z"/>
</svg>
