<svg version="1.1" id="Layer_1" xmlns="http://www.w3.org/2000/svg" xmlns:xlink="http://www.w3.org/1999/xlink" x="0px" y="0px"
	 viewBox="0 0 50 50" style="enable-background:new 0 0 50 50;" xml:space="preserve">
<style type="text/css">
	.st0{fill:#FFCA28;}
</style>
<path class="st0" d="M45,0H5C2.24,0,0,2.24,0,5V45c0,2.76,2.24,5,5,5H45c2.76,0,5-2.24,5-5V5C50,2.24,47.76,0,45,0z M18.09,10.95
	c0.05-0.32,0.32-0.57,0.65-0.57c0.25,0,0.46,0.14,0.58,0.35l0,0l3.06,5.86l-7.12,13.04L18.09,10.95z M24.42,14.89L24.42,14.89
	c0.11-0.21,0.33-0.36,0.58-0.36s0.47,0.14,0.58,0.36l2.19,4.28L14.81,32.48L24.42,14.89z M25.92,39.62
	c-0.28,0.16-0.61,0.26-0.96,0.26c-0.35,0-0.68-0.09-0.95-0.26l-9.45-5.44l17.08-17.57c0.12-0.12,0.28-0.19,0.46-0.19
	c0.32,0,0.59,0.24,0.64,0.56l2.71,17.2L25.92,39.62z"/>
</svg>
