<svg version="1.1" id="Layer_1" xmlns="http://www.w3.org/2000/svg" xmlns:xlink="http://www.w3.org/1999/xlink" x="0px" y="0px"
	 viewBox="0 0 50 50" style="enable-background:new 0 0 50 50;" xml:space="preserve">
<g>
	<path d="M14.3,28.1C14.52,27.77,13.72,28.06,14.3,28.1L14.3,28.1z"/>
	<path d="M14.54,30.32C14.44,29.91,13.62,29.59,14.54,30.32L14.54,30.32z"/>
	<path d="M12.83,24.93C13.38,24.75,12.32,24.81,12.83,24.93L12.83,24.93z"/>
	<path d="M13.17,25.72C14.02,25.39,12.25,25.48,13.17,25.72L13.17,25.72z"/>
	<path d="M18.45,33.89C18.4,33.66,17.6,33.63,18.45,33.89L18.45,33.89z"/>
	<path d="M22.26,35.9C22.53,35.45,21.14,35.64,22.26,35.9L22.26,35.9z"/>
	<path d="M18.79,33.01c-0.73-0.39-2.37-0.65-1.25,0.23l0.27,0.06h0C18.45,33.79,20.39,33.36,18.79,33.01z"/>
	<path d="M14.57,29.24C14.43,28.7,13.6,28.7,14.57,29.24L14.57,29.24z"/>
	<path d="M18.77,32.62C18.6,32.47,18.8,32.72,18.77,32.62L18.77,32.62z"/>
	<path d="M17.23,32.33C17.18,32.05,16.87,32.35,17.23,32.33L17.23,32.33z"/>
	<path d="M14.9,27.07c-1.16-0.57-0.65,0.28-0.43,0.52c-0.31,0.07,0.39,0.26,0.32,0.27c0.71,0.16,2.84,1.75,1.58,0.11
		c-0.64-0.19-0.26-1.76-0.91-1.48C15.9,27.22,15.82,27.53,14.9,27.07z"/>
	<path d="M18.4,29.18C18.4,28.62,17.4,28.95,18.4,29.18L18.4,29.18z"/>
	<path d="M18.12,32.43C18.76,32.37,17.11,32.01,18.12,32.43L18.12,32.43z"/>
	<path d="M17.38,32.15C18.23,32.1,16.21,31.78,17.38,32.15L17.38,32.15z"/>
	<path d="M21.98,35.04C21.82,34.86,21.91,35.08,21.98,35.04L21.98,35.04z"/>
	<path d="M15.46,29.83C15.13,29.28,14.28,29.33,15.46,29.83L15.46,29.83z"/>
	<path d="M19.56,36.19C19.86,36.06,19.14,36.03,19.56,36.19L19.56,36.19z"/>
	<path d="M21.17,32.96c-0.25-0.37-1.58-0.28-0.6-0.05C21.06,33.35,22.85,33.23,21.17,32.96z"/>
	<path d="M20.29,36.46C20.21,36.09,19.96,36.66,20.29,36.46L20.29,36.46z"/>
	<path d="M20.03,34.81C20.44,34.52,19.18,34.59,20.03,34.81L20.03,34.81z"/>
	<path d="M19.77,33.87C19.68,33.61,19.3,33.86,19.77,33.87L19.77,33.87z"/>
	<path d="M18.89,32.31C20.82,32.94,17.93,31.55,18.89,32.31L18.89,32.31z"/>
	<path d="M19.97,33.11c0.08,0.21,0.32,0.19,0.47,0.28v0c0.85,0.22,0.85-0.13,0.08-0.24C20.1,32.77,18.8,32.37,19.97,33.11z"/>
	<path d="M19.77,35.62C20.44,35.19,18.9,35.62,19.77,35.62L19.77,35.62z"/>
	<path d="M20.45,35.97C20.43,35.74,20.2,36.07,20.45,35.97L20.45,35.97z"/>
	<path d="M21.57,34.62C21.65,34.27,20.84,34.51,21.57,34.62L21.57,34.62z"/>
	<path d="M20.57,34.66l0.21,0.09l0.18,0.07v0C22.52,35.27,19.64,33.84,20.57,34.66z"/>
	<path d="M20.67,33.92L20.92,34C22.06,34.15,19.57,33.23,20.67,33.92z"/>
	<path d="M21.19,36.84C21.62,36.43,20.53,36.58,21.19,36.84L21.19,36.84z"/>
	<path d="M21.37,35.63C21.96,35.41,20.42,35.41,21.37,35.63L21.37,35.63z"/>
	<path d="M16.52,29.45c-1-0.51-0.24,0.19-0.54,0.12c-1.03-0.28,0.91,0.78-0.16,0.52c0.58,0.46,1.58,1.19,0.25,0.49
		c-0.18,0.25,0.95,0.63,1.24,0.82l-0.01,0c0.47,0.35,1.76,0.99,0.67,0.13c0.37-0.43-0.71-0.66-0.35-0.94
		c-0.91-0.56-0.72-0.52-0.08-0.49c-1.09-0.49,0.16-0.45,0.1-0.7C17.2,29.31,15.54,28.65,16.52,29.45z"/>
	<path d="M13.22,12.68C13.48,12.34,12.77,12.86,13.22,12.68L13.22,12.68z"/>
	<path d="M13.92,12.9l0.24,0.01C15.35,12.75,13.85,12.4,13.92,12.9z"/>
	<path d="M13.12,10.58c-0.72-0.57-1.41,0.64-0.72,0.96C11.56,10.44,13.98,11.72,13.12,10.58z"/>
	<path d="M12.82,14.68C13.45,14.2,15,14.96,14,14.2C13.91,14.12,11.82,14.78,12.82,14.68z"/>
	<path d="M12.91,20.17c-1.69-0.18,1.49,0.58-0.21,0.36c-0.23,0.15,0.32,0.33,0.34,0.28l-0.01,0C13.65,20.78,14,20.14,12.91,20.17z"
		/>
	<path d="M10.77,18.31c-1.64,0.33,1.13,2.04,0.78,0.68c0.69,0.03,1.35-0.41,0.98,0.26c1.36-0.15,2.3-1.32,3.61-1.16
		c1.03-0.14,2.14-0.24,3.24-0.65c0.9-0.06,1.77-1.04,1.28-1.62c-0.79-0.07-1.6-0.02-2.44,0.09c0.34,0.14,0.7,0.99-0.32,0.6
		c-0.02-0.33,0.04-0.5,0.12-0.58c-0.41,0.06-0.82,0.12-1.24,0.21c-1.51,0.31-2.88,0.91-4.41,1.17c-1.48,0.2,0.3,0.55-0.13,0.63
		c-0.77,0.27,0.92,0.45-0.1,0.73c-0.63-0.12-1.29-0.34-1.02-1.01c-1.42,0.19-2.67,0.78-1.55,2.22l0.08,0
		C9.53,19.16,9.55,17.87,10.77,18.31z M18.93,16.35c0.02,0.09-0.03,0.44-0.15,0.17C19.1,15.67,20.03,16.18,18.93,16.35z
		 M15.95,16.94c-0.46-0.35-0.82,0.21-1.13,0.06C15.32,16.39,17.69,16.61,15.95,16.94z M14.6,17.14
		C14.9,16.79,14.69,17.46,14.6,17.14L14.6,17.14z M13.99,17.68l-0.22-0.2C13.81,16.91,15.16,17.79,13.99,17.68z M13.15,17.47
		C13.63,17.11,13.41,17.67,13.15,17.47L13.15,17.47z M13.63,18.23c-0.15-0.11-0.39-0.2-0.55-0.16
		C13.42,16.84,14.87,19.07,13.63,18.23z"/>
	<path d="M12.17,15.77c1.11-0.38,2.62-0.8,3.14,0.19c-0.53-0.64-0.21-1.27,0.29-0.33c0.71,0.95,1.07-0.43,0.6-0.75
		c0.53,0.65,1.12,0.96,0.35,0.04c0.84-1.01-1.68,0.13-2.25,0.12C14.03,15.16,11.46,15.69,12.17,15.77z"/>
	<path d="M14.23,19.37C14.5,19.03,13.86,19.28,14.23,19.37L14.23,19.37z"/>
	<path d="M34.33,36.15C34.78,35.73,33.75,36.02,34.33,36.15L34.33,36.15z"/>
	<path d="M22.9,17.09c0.12,0.04,0.09,0.29,0.26,0.24C23.54,16.65,21.57,16.41,22.9,17.09z"/>
	<path d="M35.76,35.44C35.85,34.88,35.39,35.49,35.76,35.44L35.76,35.44z"/>
	<path d="M29.68,36.33C29.98,36.11,29.31,36.3,29.68,36.33L29.68,36.33z"/>
	<path d="M25.52,33.5C25.51,32.95,24.97,33.64,25.52,33.5L25.52,33.5z"/>
	<path d="M15.12,14.74L15.12,14.74c0.74,0.02-0.32-0.99,0.56-0.53c-0.14-0.47-1.02-0.56-1.46-0.75
		C13.98,13.89,14.72,14.75,15.12,14.74z"/>
	<path d="M26.58,34.38C26.53,34.16,26.38,34.42,26.58,34.38L26.58,34.38z"/>
	<path d="M12.31,23.46C12.15,23.33,12.18,23.63,12.31,23.46L12.31,23.46z"/>
	<path d="M10.32,19.68C10.86,19.26,9.67,19.52,10.32,19.68L10.32,19.68z"/>
	<path d="M11.7,20.98C12.66,20.39,10.68,20.47,11.7,20.98L11.7,20.98z"/>
	<path d="M12.04,21.4C12.12,20.88,11.48,21.5,12.04,21.4L12.04,21.4z"/>
	<path d="M10.75,22.93C10.56,21.87,10.02,22.77,10.75,22.93L10.75,22.93z"/>
	<path d="M12.19,27.4L12.19,27.4c-0.72-1.03-0.45-1.5-1.15-2.34c-0.13-0.64-1.2-2.11-0.55-0.56C11.08,25.41,11.26,26.81,12.19,27.4z
		"/>
	<path d="M9.89,21.5C9.86,21.13,9.69,21.64,9.89,21.5L9.89,21.5z"/>
	<path d="M10.19,21.27C10.15,20.83,9.93,21.33,10.19,21.27L10.19,21.27z"/>
	<path d="M10.94,24.11c0.2,0.36,0.18,1.04,0.61,1.19C11.68,24.78,10.38,22.41,10.94,24.11z"/>
	<path d="M11.74,23.18C11.75,22.84,10.83,22.87,11.74,23.18L11.74,23.18z"/>
	<path d="M17.35,34.75c-0.27-0.47-1.03-0.77-0.49-1.02c-0.97,0.34-1.01-1.28-1.47-1.05c-1.02-0.32-0.4-1.47-1.62-2.18
		c-0.11-0.74-1.21-1.38-1.56-2.5c-0.15-0.57-1.24-2.22-0.58-0.69c0.57,1.47,1.57,2.74,2.41,4c0.65,1.2,1.41,2.45,2.59,3.2
		c0.4,0.38,0.78,0.97,1.34,1.09l0,0C19.3,36.1,17.96,34.67,17.35,34.75z M14.13,31.39C14.17,31.19,14.37,31.82,14.13,31.39
		L14.13,31.39z"/>
	<path d="M11.73,22.22l0.14,0.05C12.58,22,10.58,21.7,11.73,22.22z"/>
	<path d="M12.41,21.18C12.74,20.83,11.68,21.04,12.41,21.18L12.41,21.18z"/>
	<path d="M11.93,22.83C11.84,22.02,10.78,22.71,11.93,22.83L11.93,22.83z"/>
	<path d="M13.58,21.1C13.51,20.7,13.39,21.31,13.58,21.1L13.58,21.1z"/>
	<path d="M26.21,34.1C26.06,33.72,25.62,34.09,26.21,34.1L26.21,34.1z"/>
	<path d="M14.42,25.7C14.41,25.52,14.25,25.77,14.42,25.7L14.42,25.7z"/>
	<path d="M14.92,25.83C14.93,25.27,14.49,25.81,14.92,25.83L14.92,25.83z"/>
	<path d="M20.21,31.79C20,31.38,19.9,31.86,20.21,31.79L20.21,31.79z"/>
	<path d="M15.89,25.76C16.06,25.6,15.49,25.64,15.89,25.76L15.89,25.76z"/>
	<path d="M19.57,31.43C19.55,31.1,19.17,31.45,19.57,31.43L19.57,31.43z"/>
	<path d="M30.85,38.36l0.2-0.13C32.03,37.53,30.47,38.1,30.85,38.36z"/>
	<path d="M30.77,36.45c-1.16,0.34-2.02-0.4-2.59-1.15c-1.3-0.3-2.81-0.97-3.46-2.12c-0.27-0.43,0.38,0.06-0.23-0.65
		c-0.78-0.7-1.18-1.49-1.7-2.34c-0.63-0.34-0.7-1.32-0.77-0.03c0.01-0.81-0.76-1.36-0.95-1.14c0-0.78,0.82-0.39,0.24-0.97
		c-0.12-0.81-0.53-1.66-0.65-2.58c-0.19-0.44-0.03-1.39-0.65-0.39c-0.23,1.06-0.08-1.3,0.28-0.52c0.46-0.79-0.17-0.7-0.19-0.59
		c0.3-0.67,0.19-1.62-0.08-1.26c0.16-0.71,0.25-2.61-0.24-2.28c0.3-0.74,0.57-3.4-0.73-2.39c-0.53,0.01-1.44,0.19-1.87,0.41
		c1.35,0.75-0.14,0.27-0.69,0.15c-0.07,0.69-0.62,0.39-1.3,0.4c1.09,0.13-0.53,1.11-1.15,0.73c-0.81,0.39,0.7,1.36,0.02,1.66
		c0.08,0.45-1.24-0.16-1.14,0.88c-0.79-0.33-0.11,1.24,0.29,0.71c1.34,0.36,0.94,1.19,0.98,1.98c-0.22,0.46-1.08-1.08-0.19-1.01
		c-0.7-1.14-0.77-0.41-1.36,0.12c-0.13,0.04,1.48,0.75,0.47,1.1c0.89,0.14,0.92,0.92,1.1,1.41c0.54,0.56,0.43-0.62,1.07,0.05
		c-0.41-0.6-2.15-1.69-0.75-1.34c-0.01-0.6-0.25-1.09,0.18-1.08c0.43-0.77-0.45,1.91,0.52,0.92c0.27-0.12,0.33-0.77,0.81,0.06
		c0.69,0.68,0.25,1.18-0.73,0.55c0.18,0.6,1.31,0.81,1.1,1.74c0.23,0.82,0.54,0.52,0.82,0.47c0.21,0.8,0.34,0.21,0.35-0.17
		c0.99,0.21,0.76,0.8,1.07,1.21c0.68,0.31-0.98-2.09,0.2-0.72c1.23,1.11,0.46,1.58-0.64,1.4c0.7-0.06,0.93,0.95,1.8,0.91
		c0.8,0.38,1.34,1.84-0.04,1.23c-0.48-0.43-2.17-0.96-0.79-0.14c1.28,0.59,2.29,0.94,3.52,1.69c0.88,0.62,1.26,1.35,1.6,1.49
		c-0.74,0.35-2.23-0.28-1.13-0.48c-0.69-0.13-1.47-0.47-0.81,0.39c0.56,0.47,1.99,0.42,2.25,0.47c-0.22,0.48-0.59,0.52,0.01,0.55
		c-0.67,0.36,0.21,0.41,0.28,0.62l0.01,0c1.06-0.63,0.71,1.49,1.8,0.18c1.08-0.79-0.93,0.97,0.4,0.14c0.96-0.64,2.37,0.3,3.27,0.61
		c0.64-0.03,1.27,0.56,1.93,0.2C33.54,37.22,29.79,37.05,30.77,36.45z M19.92,24.29l0-0.16C19.98,22.98,20.26,23.44,19.92,24.29z
		 M15.98,20.75C16.26,20.15,16.5,21.41,15.98,20.75L15.98,20.75z M15.48,20.86c0.31,0.25,0.92,0.42,0.39,0.53
		c0.84,0.74-0.21,0.2-0.51-0.1l0,0C15.59,20.95,14.74,19.75,15.48,20.86z M15.65,22c-0.18-0.2-0.57-0.11-0.72-0.32
		C15.5,21.56,17.31,22.68,15.65,22z M14.87,20.09C15.05,20.01,14.97,20.33,14.87,20.09L14.87,20.09z M14.18,23.41L14.18,23.41
		c-0.51-0.51-0.89-0.98,0.02-0.32c0.35,0.01-0.78-1.07,0.08-0.34C15.19,22.91,14.73,24.23,14.18,23.41z M14.73,22.87l-0.24-0.25
		C12.99,21.3,16.36,23.32,14.73,22.87z M14.96,23.39C15.26,23.09,15.12,23.68,14.96,23.39L14.96,23.39z M15.06,24.33
		C15.12,23.5,15.38,24.89,15.06,24.33L15.06,24.33z M15.44,23.54C14.99,22.69,15.99,23.9,15.44,23.54L15.44,23.54z M15.4,22.52
		c-0.23-0.06-0.5-0.08-0.61-0.34C13.83,20.87,17.57,23.53,15.4,22.52z M15.68,24.54C15.98,23.92,16.18,25.41,15.68,24.54
		L15.68,24.54z M17.06,27.21C17.36,27.13,17.21,27.72,17.06,27.21L17.06,27.21z M17.35,25.67c-0.61-0.85-0.36,0.47-0.91-0.38l0-0.01
		c-0.21-0.36-0.57-1.4-0.46-1.72c0.1,0.52,1.11,2.24,0.49,0.72c-0.68-1.28,0.81,0.41,0.97,0.73C17.51,25.33,17.02,24.92,17.35,25.67
		z M17.83,23.8C17.74,22.69,18.04,23.99,17.83,23.8L17.83,23.8z M18.31,27.42C18.1,27.04,18.76,27.78,18.31,27.42L18.31,27.42z
		 M19.52,18.03C19.65,17.87,19.55,18.22,19.52,18.03L19.52,18.03z M18.91,22.08C18.48,21.01,19.32,22.64,18.91,22.08L18.91,22.08z
		 M18.64,21.38C18.57,20.94,18.89,21.93,18.64,21.38L18.64,21.38z M18.89,25.11L18.89,25.11c-0.65-0.39-0.17-2.72,0.05-1.13
		c0.63-0.2-0.04,0.83,0.43,0.82C19.3,25.45,19.09,25.68,18.89,25.11z M19.09,22.48C19.09,22.25,19.15,22.81,19.09,22.48L19.09,22.48
		z M19.07,20.93L19.07,20.93c-0.3-0.52,0.38-2.3,0.45-1.2c-0.31,0.86-0.09,1.34,0.13,0.19C20.05,19.01,19.56,21.71,19.07,20.93z
		 M19.59,23.77C19.75,22.47,19.73,24.53,19.59,23.77L19.59,23.77z M20.07,25.77C20.14,25.47,20.07,26.13,20.07,25.77L20.07,25.77z
		 M20.15,25.29C20.32,24.65,20.16,25.71,20.15,25.29L20.15,25.29z M20.34,26.05C20.4,25.34,20.48,26.53,20.34,26.05L20.34,26.05z
		 M21.01,28.43l-0.11-0.18C20.42,27.17,21.25,27.66,21.01,28.43z M21.33,29.52C21.52,28.83,21.54,30.1,21.33,29.52L21.33,29.52z
		 M22.42,30.92C21.91,29.93,23.07,31.2,22.42,30.92L22.42,30.92z M22.87,31.51C22.85,30.87,23.01,32.01,22.87,31.51L22.87,31.51z
		 M23.51,32.57c-0.41-0.43-0.51-1.22-0.07-0.53C23.66,32.13,24.16,33.34,23.51,32.57z M27.96,35.39
		C28.21,35.37,27.97,35.58,27.96,35.39L27.96,35.39z"/>
	<path d="M45,0H5C2.24,0,0,2.24,0,5V45c0,2.76,2.24,5,5,5H45c2.76,0,5-2.24,5-5V5C50,2.24,47.76,0,45,0z M41.41,38.01
		c-0.78,0.5-1.91,0.2-2.69,0.89c-1.29-0.64-2.31,0.57-3.73,0.42c-1.58,0.28-3.19,0.4-4.79,0.4c-2.63-0.21-5.31-0.29-7.81-1.21
		c-1.41-0.41-2.78-1.21-4.02-2.01l0,0c-1.26-0.99-2.6-1.94-3.51-3.27c-1.93-2.35-3.41-5.08-4.43-7.94
		c-0.61-1.86-0.82-3.86-1.61-5.65c-0.83-1.3,0.14-2.72,1.57-3.13c0.63-0.12,1.75-0.72,0.4-0.29c-1.21,0.88-1.32-0.8-0.09-0.91
		c0.85-0.11,1.15-0.8,0.87-1.42c-0.91-0.59,2.2-1.24,0.64-2.12c-1.63-1.75,2.28-2.09,1.31-0.1c-0.23,1.53,2.73-0.28,2.04,1.49
		c0.7,0.85,2.61,0.19,2.56,1.39c1.02,0.07,1.37,0.92,2.32,0.99c0.99,0.45,2.78,0.8,3.12,1.91c-0.98,0.78-3.25-1.6-3.36,0.55
		c0.3,3.18,0.22,6.45,1.38,9.47c0.55,1.83,1.88,3.27,3.08,4.7c1.15,1.4,2.71,2.38,4.3,3.21c1.39,0.66,2.9,1.09,4.42,1.37
		c0.62-0.47,1.7-2.22,2.66-1.48c0.05,0.83-1.91,1.74-0.09,1.64c1.07-0.32,1.81,0.82,2.68-0.21C39.43,37.62,41.99,36.05,41.41,38.01z
		"/>
	<path d="M39.43,37.59c0.77,0,2.32-0.24,0.65-0.24C39.83,37.4,38.56,37.39,39.43,37.59z"/>
	<path d="M30.69,38.05C31.48,37.39,29.85,38.34,30.69,38.05L30.69,38.05z"/>
	<path d="M38.64,37.4C38.65,36.91,38.22,37.62,38.64,37.4L38.64,37.4z"/>
	<path d="M32.58,39.31C33.11,38.96,31.94,39.2,32.58,39.31L32.58,39.31z"/>
	<path d="M37.04,37.55C37.22,37.02,36.58,37.63,37.04,37.55L37.04,37.55z"/>
	<path d="M33.35,37.53l0.19,0.03l0.3,0.02v0c0.7-0.14,2.31,0.36,2.57-0.19C35.55,37.37,33.45,36.79,33.35,37.53z"/>
	<path d="M22.75,37.7C23.01,37.32,21.91,37.56,22.75,37.7L22.75,37.7z"/>
	<path d="M28.63,37.51c0.01-0.57-0.02-0.91-0.83-0.21c-0.22,0.12-0.32,0.65,0.09,0.32l0,0C28.34,37.18,27.91,38.3,28.63,37.51z"/>
	<path d="M28.9,37.75C30.46,36.74,28.26,37.31,28.9,37.75L28.9,37.75z"/>
	<path d="M27.57,37.23C28.34,36.59,26.83,37.52,27.57,37.23L27.57,37.23z"/>
	<path d="M26.61,37.88C26.59,37.61,26.35,37.99,26.61,37.88L26.61,37.88z"/>
	<path d="M29.17,38.04C30.02,37.14,28.35,38.09,29.17,38.04L29.17,38.04z"/>
	<path d="M29.17,38.33C29.17,38.12,28.84,38.42,29.17,38.33L29.17,38.33z"/>
	<path d="M27.05,37.26C27.08,36.87,26.79,37.59,27.05,37.26L27.05,37.26z"/>
	<path d="M23.95,36.06C24.94,35.67,22.99,35.87,23.95,36.06L23.95,36.06z"/>
	<path d="M26.13,37.8C26.17,37.3,25.64,38.17,26.13,37.8L26.13,37.8z"/>
	<path d="M28.78,38.86c-1.3,0.28-2.68-0.07-4.02-0.24c-1.5-0.67-3.12-1.13-4.52-2c-1.76-0.64,0.91,0.82,1.38,0.94
		c1.1,0.62-1.21-0.31-1.53-0.58c-0.92-0.52-1.04-0.41-0.09,0.12l0.58,0.32h0.01c1.38,0.59,2.72,1.22,4.23,1.41
		c2.39,0.33,4.86,0.85,7.26,0.38C30.99,38.72,29.86,39.4,28.78,38.86z"/>
	<path d="M23.62,36.39C25.1,36.41,22.28,36.19,23.62,36.39L23.62,36.39z"/>
	<path d="M23.84,38.08c0.55,0.34,3.19,0.75,1.53,0.14C25.1,38.28,22.31,37.44,23.84,38.08z"/>
	<path d="M30.09,38.22C30.87,37.55,29.6,38.08,30.09,38.22L30.09,38.22z"/>
	<path d="M29.71,37.95l0.14-0.04C30.6,37.41,29.67,37.49,29.71,37.95z"/>
</g>
</svg>
