<svg version="1.1" id="Layer_1" xmlns="http://www.w3.org/2000/svg" xmlns:xlink="http://www.w3.org/1999/xlink" x="0px" y="0px"
	 viewBox="0 0 50 50" style="enable-background:new 0 0 50 50;" xml:space="preserve">
<style type="text/css">
	.st0{fill:#F03C2E;}
</style>
<path class="st0" d="M45,0H5C2.24,0,0,2.24,0,5V45c0,2.76,2.24,5,5,5H45c2.76,0,5-2.24,5-5V5C50,2.24,47.76,0,45,0z M39.4,26.39
	L26.39,39.4c-0.75,0.75-1.97,0.75-2.73,0L10.6,26.33c-0.75-0.75-0.75-1.97,0-2.73l8.96-8.96l3.39,3.39c0,0,0,0.01,0,0.01
	c-0.48,1.17,0.08,2.51,1.16,3v8.22c-0.19,0.12-0.45,0.29-0.66,0.5c0,0,0,0,0,0c-0.9,0.9-0.9,2.35,0,3.24c0,0,0,0,0,0
	c0.9,0.9,2.35,0.9,3.24,0c0.18-0.18,0.32-0.38,0.43-0.61c0.56-1.14,0.1-2.51-1.06-3.07v-8.14l3.11,3.09
	c-0.35,0.86-0.16,1.84,0.5,2.49c0.9,0.9,2.35,0.9,3.25,0c0,0,0,0,0,0c0.9-0.9,0.9-2.35,0-3.24c-0.62-0.62-1.54-0.83-2.37-0.54
	l-3.32-3.32c0.29-0.83,0.08-1.75-0.54-2.37c-0.62-0.62-1.53-0.83-2.35-0.55l-3.44-3.44l2.71-2.71c0,0,0,0,0,0
	c0.75-0.75,1.97-0.75,2.73,0L39.4,23.67C40.15,24.42,40.15,25.64,39.4,26.39z"/>
</svg>
