<svg version="1.1" id="Layer_1" xmlns="http://www.w3.org/2000/svg" xmlns:xlink="http://www.w3.org/1999/xlink" x="0px" y="0px"
	 viewBox="0 0 50 50" style="enable-background:new 0 0 50 50;" xml:space="preserve">
<path d="M45,0H5C2.24,0,0,2.24,0,5v40c0,2.76,2.24,5,5,5h40c2.76,0,5-2.24,5-5V5C50,2.24,47.76,0,45,0z M29.78,39.71
	c-0.75,0.15-1.03-0.33-1.03-0.73c0-0.51,0.02-2.15,0.02-4.2c0-1.44-0.48-2.35-1.03-2.83c3.39-0.38,6.93-1.67,6.93-7.54
	c0-1.67-0.58-3.04-1.56-4.1c0.15-0.38,0.68-1.95-0.15-4.05c0,0-1.28-0.4-4.17,1.57c-1.21-0.33-2.51-0.51-3.79-0.51
	c-1.28,0-2.56,0.17-3.79,0.51c-2.89-1.97-4.17-1.57-4.17-1.57c-0.83,2.1-0.3,3.67-0.15,4.05c-0.95,1.06-1.56,2.43-1.56,4.1
	c0,5.87,3.54,7.18,6.91,7.54c-0.43,0.38-0.83,1.06-0.95,2.05c-0.88,0.4-3.06,1.06-4.42-1.26c0,0-0.8-1.47-2.34-1.57
	c0,0-1.48,0-0.1,0.94c0,0,1,0.46,1.68,2.23c0,0,0.88,2.73,5.1,1.82c0,1.27,0.02,2.48,0.02,2.83c0,0.4-0.28,0.89-1.03,0.73
	c-6.03-2.02-10.37-7.74-10.37-14.5c0-8.45,6.78-15.28,15.17-15.28c8.36,0,15.17,6.83,15.14,15.28
	C40.15,31.97,35.81,37.68,29.78,39.71z"/>
</svg>
