<svg version="1.1" id="Layer_1" xmlns="http://www.w3.org/2000/svg" xmlns:xlink="http://www.w3.org/1999/xlink" x="0px" y="0px"
	 viewBox="0 0 50 50" style="enable-background:new 0 0 50 50;" xml:space="preserve">
<style type="text/css">
	.st0{fill:#E24329;}
</style>
<path class="st0" d="M45,0H5C2.24,0,0,2.24,0,5V45c0,2.76,2.24,5,5,5H45c2.76,0,5-2.24,5-5V5C50,2.24,47.76,0,45,0z M40.64,28.51
	L25,39.87L9.36,28.51c-0.43-0.31-0.61-0.87-0.45-1.38l1.81-5.56l3.58-11.01c0.18-0.57,0.99-0.57,1.17,0l3.58,11.01h0h11.89
	l3.58-11.02c0.18-0.57,0.99-0.57,1.17,0l3.58,11.02l1.81,5.56C41.25,27.64,41.07,28.19,40.64,28.51z"/>
</svg>
