<svg version="1.1" id="Layer_1" xmlns="http://www.w3.org/2000/svg" xmlns:xlink="http://www.w3.org/1999/xlink" x="0px" y="0px"
	 viewBox="0 0 50 50" style="enable-background:new 0 0 50 50;" xml:space="preserve">
<style type="text/css">
	.st0{fill:#E10098;}
</style>
<g>
	<path class="st0" d="M16.9,31.59c0,0.01-0.01,0.03-0.01,0.04l6.28,3.62c0.37-0.41,0.86-0.7,1.4-0.82c0.98-0.2,1.89,0.13,2.5,0.76
		l6.06-3.5c-0.01-0.04-0.03-0.08-0.04-0.11H16.9z"/>
	<path class="st0" d="M24.88,15.16c0,0,0.13,0,0.13,0H24.88c-0.24,0-0.47-0.03-0.69-0.09l-8.01,13.88c0.18,0.17,0.34,0.37,0.47,0.6
		c0.12,0.2,0.2,0.41,0.26,0.63h16.2c0.06-0.22,0.14-0.43,0.26-0.63c0.13-0.23,0.29-0.43,0.47-0.6L25.78,15
		C25.5,15.1,25.19,15.16,24.88,15.16z"/>
	<path class="st0" d="M22.93,14.33l-6.04,3.49c0.19,0.67,0.12,1.42-0.25,2.07v0c-0.34,0.59-0.88,1-1.48,1.2v7.08l7.91-13.7
		C23.02,14.42,22.97,14.37,22.93,14.33z"/>
	<path class="st0" d="M33.37,19.89c-0.38-0.65-0.44-1.4-0.25-2.07l-6.21-3.59c-0.02,0.02-0.04,0.05-0.06,0.07l8.02,13.9v-7.1
		C34.26,20.89,33.71,20.48,33.37,19.89z"/>
	<path class="st0" d="M45,0H5C2.24,0,0,2.24,0,5V45c0,2.76,2.24,5,5,5H45c2.76,0,5-2.24,5-5V5C50,2.24,47.76,0,45,0z M37.02,28.57
		c1.29,0.74,1.73,2.38,0.98,3.66h0c-0.74,1.28-2.38,1.72-3.66,0.98c-0.25-0.15-0.47-0.33-0.66-0.54l-6.02,3.48
		c0.1,0.29,0.16,0.59,0.16,0.91c0,0,0,0,0,0c0,1.48-1.2,2.67-2.68,2.68c-1.67,0-2.98-1.52-2.62-3.25c0.01-0.04,0.02-0.07,0.03-0.11
		l-6.31-3.64c-0.17,0.18-0.37,0.34-0.6,0.47c-1.29,0.74-2.92,0.3-3.66-0.98v0c-0.74-1.28-0.3-2.92,0.98-3.66
		c0.24-0.14,0.5-0.24,0.76-0.29v-7.11c-0.26-0.06-0.52-0.15-0.77-0.3c-1.28-0.74-1.72-2.38-0.98-3.66c0.74-1.28,2.38-1.72,3.66-0.98
		c0.23,0.13,0.43,0.3,0.61,0.48l6.04-3.49c-0.07-0.23-0.1-0.47-0.1-0.73v-0.01c0-1.14,0.7-2.18,1.79-2.53
		c1.86-0.6,3.57,0.77,3.57,2.53c0,0.21-0.03,0.41-0.07,0.6l6.27,3.62c0.17-0.18,0.38-0.35,0.61-0.48c1.28-0.74,2.92-0.3,3.66,0.98
		c0.74,1.28,0.3,2.92-0.98,3.66c-0.24,0.14-0.5,0.24-0.75,0.29v7.11C36.53,28.33,36.78,28.43,37.02,28.57z"/>
</g>
</svg>
