<svg version="1.1" id="Layer_1" xmlns="http://www.w3.org/2000/svg" xmlns:xlink="http://www.w3.org/1999/xlink" x="0px" y="0px"
	 viewBox="0 0 50 50" style="enable-background:new 0 0 50 50;" xml:space="preserve">
<style type="text/css">
	.st0{fill:#6762A6;}
</style>
<path class="st0" d="M45,0H5C2.24,0,0,2.24,0,5V45c0,2.76,2.24,5,5,5H45c2.76,0,5-2.24,5-5V5C50,2.24,47.76,0,45,0z M15.35,40.01
	v-0.02v-9.34l4.68,4.68L15.35,40.01z M32.91,39.92h-4.46v0.1l-0.02-0.1h0.02V23.59c0,0,1.07-3.93-13.16,1.62
	c-0.02,0.15-0.02-15.2-0.02-15.2l4.64-0.02v9.69c0,0,13-5.13,13,3.88V39.92z M31.18,15.9H31.1h-4.85c1.78-2.18,3.39-5.9,3.39-5.9
	h5.09C34.73,10,33.86,12.43,31.18,15.9z"/>
</svg>
