<svg version="1.1" id="Layer_1" xmlns="http://www.w3.org/2000/svg" xmlns:xlink="http://www.w3.org/1999/xlink" x="0px" y="0px"
	 viewBox="0 0 50 50" style="enable-background:new 0 0 50 50;" xml:space="preserve">
<style type="text/css">
	.st0{fill:#0868AC;}
</style>
<path class="st0" d="M45,0H5C2.24,0,0,2.24,0,5V45c0,2.76,2.24,5,5,5H45c2.76,0,5-2.24,5-5V5C50,2.24,47.76,0,45,0z M27.13,10.98
	L28,9.78c-1.6,2.89-0.08,6.46,2.38,8.32c0.43,0.33,0.89,0.61,1.38,0.84c0.26,0.12,0.52,0.23,0.79,0.33
	c0.21,0.07,0.45,0.15,0.66,0.21c2.74,0.67,4.98,0.21,6.31-1.71c-0.41,0.58-1.92,4.54-7.52,3.46l-0.36-0.1l-0.11-0.03L31.27,21
	c-2.03-0.75-3.76-2.32-4.61-4.32C25.86,14.8,25.97,12.69,27.13,10.98z M22.65,38.99c-0.21-0.04-0.41-0.11-0.6-0.17l-0.14-0.04
	c-0.2-0.06-0.39-0.12-0.59-0.19l-0.07-0.02l-0.53-0.19l-0.13-0.05c-0.19-0.07-0.37-0.15-0.56-0.23l-0.1-0.05l-0.48-0.22l-0.12-0.06
	l-0.07-0.03l-0.3-0.16c-0.08-0.04-0.16-0.08-0.23-0.12l-0.42-0.24l-0.16-0.1c-0.19-0.11-0.38-0.23-0.56-0.34l-0.16-0.1
	c-0.12-0.08-0.24-0.16-0.36-0.24l-0.17-0.12l-0.37-0.26l-0.18-0.13l-0.33-0.26l-0.16-0.13l-0.48-0.4c-0.15-0.13-0.29-0.26-0.43-0.4
	l-0.13-0.12l-0.32-0.31l-0.13-0.13c-0.13-0.14-0.27-0.28-0.4-0.42c0-0.01-0.01-0.01-0.02-0.02c-0.13-0.15-0.26-0.3-0.39-0.45
	l-0.11-0.13l-0.28-0.35l-0.12-0.15c-0.1-0.13-0.2-0.27-0.3-0.4l-0.07-0.09c-0.11-0.16-0.22-0.32-0.33-0.48l-0.1-0.15l-0.23-0.36
	l-0.11-0.19l-0.2-0.34c-0.04-0.07-0.07-0.13-0.11-0.19c-0.02-0.04-0.04-0.07-0.06-0.11l-0.1-0.19c-0.05-0.1-0.1-0.2-0.15-0.3
	c-2.08-4.16-2.41-9.24,0.3-13.14l2.12-2.69c-2.39,4.62-1.32,10.26,1.69,14.34l0.33,0.44l0.1,0.13l0.29,0.35l0.1,0.12
	c0.13,0.15,0.26,0.31,0.4,0.45c0.01,0.01,0.01,0.01,0.02,0.02c0.12,0.14,0.25,0.28,0.38,0.42l0.12,0.12l0.32,0.32l0.12,0.12
	l0.45,0.41c0.02,0.01,0.03,0.02,0.05,0.04l0.42,0.36l0.15,0.12l0.34,0.27l0.17,0.13l0.38,0.27c0.03,0.03,0.08,0.06,0.13,0.09
	l0.4,0.27c0.05,0.03,0.1,0.07,0.15,0.1c0.19,0.12,0.37,0.23,0.56,0.34l0.15,0.08c0.14,0.08,0.29,0.16,0.43,0.24l0.24,0.12
	c0.12,0.07,0.24,0.13,0.36,0.19l0.13,0.06l0.47,0.22l0.11,0.05c0.18,0.08,0.37,0.16,0.55,0.23l0.14,0.06
	c0.17,0.07,0.34,0.13,0.51,0.19l0.08,0.03c0.19,0.07,0.39,0.13,0.58,0.19l0.15,0.05c0.2,0.06,0.4,0.12,0.6,0.17
	c5.4,1.23,11.09,0.12,14.29-4.05C39.6,31.1,35.78,41.39,22.65,38.99z M27.86,29.53c-0.19-0.03-0.38-0.11-0.57-0.17l-0.18-0.06
	c-0.13-0.04-0.26-0.09-0.4-0.14l-0.18-0.07c-0.14-0.06-0.29-0.11-0.43-0.17l-0.12-0.05c-0.18-0.08-0.35-0.16-0.53-0.24
	c-0.01-0.01-0.03-0.01-0.04-0.02l-0.25-0.13c-0.03-0.02-0.09-0.04-0.13-0.07l-0.36-0.19l-0.06-0.03c-0.14-0.08-0.27-0.16-0.41-0.25
	c-0.04-0.02-0.08-0.05-0.12-0.08c-0.08-0.06-0.17-0.11-0.25-0.17l-0.02-0.01c-0.19-0.13-0.37-0.26-0.55-0.4l-0.12-0.09
	c-0.18-0.15-0.36-0.29-0.53-0.44c-0.01,0-0.01-0.01-0.02-0.02c-0.15-0.14-0.3-0.28-0.45-0.42l-0.12-0.12
	c-0.15-0.15-0.3-0.3-0.44-0.46c-0.39-0.34-0.72-0.84-1.01-1.26c-0.32-0.46-0.61-0.95-0.87-1.45c-1.53-2.98-1.64-6.77,0.33-9.6
	l1.59-2.28c-1.31,2.21-1.47,4.93-0.71,7.35c0.72,2.33,2.22,4.4,4.14,5.9l0.12,0.1c0.18,0.14,0.36,0.27,0.55,0.4L26,25.08
	c0.04,0.03,0.08,0.06,0.12,0.08c0.13,0.09,0.27,0.17,0.41,0.25l0.08,0.05c0.11,0.06,0.22,0.13,0.34,0.19l0.15,0.08l0.27,0.13
	c0.17,0.09,0.35,0.17,0.53,0.25l0.12,0.05c0.14,0.06,0.29,0.12,0.43,0.17l0.19,0.07l0.4,0.14c0.06,0.02,0.12,0.04,0.17,0.06
	c0.19,0.06,0.38,0.12,0.57,0.17c4.36,1.13,8.45-0.32,10.56-3.36C40.34,23.39,38,31.21,27.86,29.53z"/>
</svg>
