<svg version="1.1" id="Layer_1" xmlns="http://www.w3.org/2000/svg" xmlns:xlink="http://www.w3.org/1999/xlink" x="0px" y="0px"
	 viewBox="0 0 50 50" style="enable-background:new 0 0 50 50;" xml:space="preserve">
<style type="text/css">
	.st0{fill:#666666;}
</style>
<path class="st0" d="M45,0H5C2.24,0,0,2.24,0,5V45c0,2.76,2.24,5,5,5H45c2.76,0,5-2.24,5-5V5C50,2.24,47.76,0,45,0z M21.42,39.09
	c-0.29-0.07-0.57-0.17-0.85-0.26c-0.92-0.31-1.81-0.68-2.66-1.16c-2.25-1.24-4.21-3.03-5.56-5.23c-0.39-0.65-0.74-1.33-1.02-2.03
	c-0.5-1.18-0.81-2.41-0.96-3.67c-0.2-1.54-0.17-3.12,0.13-4.65c0.26-1.34,0.69-2.64,1.31-3.86c1.93-3.82,5.54-6.71,9.68-7.77
	c0.86-0.22,1.74-0.36,2.6-0.42c0.43-0.03,0.85-0.04,1.25-0.02c0.26,0.02,0.52,0.04,0.78,0.07l0.37,0.07
	c0.76,0.19,1.48,0.46,2.09,0.74c0.59,0.32,1.16,0.7,1.68,1.13c0.46,0.39,0.9,0.81,1.31,1.27c0.24,0.28,0.46,0.57,0.68,0.89
	c1.44,2.07,2.1,4.56,2.27,7.05c0.08,1.24,0.06,2.49-0.18,3.73c-0.13,0.7-0.35,1.39-0.63,2.05c-0.22,0.5-0.46,0.96-0.76,1.42
	c-0.22,0.35-0.48,0.68-0.76,1.01c-0.2,0.26-0.43,0.5-0.67,0.72c-1.29,1.22-3.05,2.09-4.86,2.03c-0.29,0-0.57-0.04-0.85-0.09
	c-0.11-0.04-0.22-0.06-0.33-0.09c1.4-0.79,2.57-2.03,3.25-3.49c0.57-1.22,0.81-2.55,0.79-3.88c-0.02-1.24-0.26-2.49-0.78-3.62
	c-0.57-1.24-1.48-2.31-2.58-3.08c-0.28-0.18-0.57-0.37-0.87-0.52c-0.08-0.04-0.15-0.07-0.2-0.09c-0.02-0.02-0.06-0.02-0.07-0.04
	c-0.02-0.04-0.02-0.04-0.06-0.04c-0.37-0.13-0.78-0.22-1.18-0.28c-1.05-0.15-2.14-0.04-3.16,0.33c-0.72,0.26-1.4,0.65-2.01,1.11
	c-0.89,0.68-1.64,1.55-2.2,2.53c-0.78,1.33-1.22,2.86-1.39,4.41c-0.09,0.85-0.11,1.7-0.06,2.57c0.07,1.32,0.26,2.63,0.61,3.91
	c0.52,1.87,1.42,3.63,2.77,5.03c0.59,0.6,1.24,1.13,1.96,1.57c0.18,0.11,0.37,0.22,0.55,0.32c0.17,0.1,0.35,0.19,0.55,0.28
	L21.42,39.09z M39.63,26.74c-0.19,1.48-0.63,2.93-1.26,4.28c-0.74,1.57-1.77,3-3.01,4.22c-1.35,1.32-2.94,2.39-4.67,3.13
	c-1.24,0.53-2.55,0.89-3.88,1.06c-0.58,0.08-1.17,0.11-1.76,0.12h0l0.03,0.04c-0.07,0-0.17,0-0.26-0.02
	c-0.89-0.09-1.77-0.33-2.6-0.67c-1.48-0.59-2.81-1.53-3.86-2.75c-0.68-0.8-1.24-1.7-1.66-2.68c-0.68-1.57-1.04-3.29-1.16-5
	c-0.07-1.22-0.07-2.44,0.11-3.64c0.31-1.94,1.11-3.82,2.49-5.24c0.24-0.24,0.5-0.46,0.76-0.68c0.28-0.22,0.59-0.43,0.9-0.61
	c0.39-0.22,0.81-0.41,1.26-0.55c0.5-0.17,1-0.26,1.51-0.29c0.59-0.04,1.2,0.02,1.78,0.15l-0.02,0.01c-0.3,0.18-0.59,0.37-0.87,0.59
	c-0.83,0.64-1.53,1.45-2.05,2.36c-0.78,1.38-1.09,2.95-1.05,4.52c0.02,1.07,0.22,2.14,0.61,3.13c0.31,0.78,0.76,1.51,1.29,2.15
	c0.44,0.52,0.96,0.98,1.53,1.36c0.29,0.21,0.63,0.4,0.96,0.55c0.29,0.14,0.61,0.24,0.92,0.32c1.92,0.45,3.93-0.23,5.47-1.37
	c0.94-0.7,1.74-1.58,2.35-2.57c0.83-1.34,1.33-2.87,1.51-4.43c0.11-0.91,0.11-1.83,0.06-2.75c-0.08-1.26-0.26-2.51-0.61-3.72
	c-0.52-1.84-1.42-3.57-2.73-4.98c-0.57-0.62-1.22-1.16-1.92-1.64c-0.14-0.1-0.28-0.19-0.43-0.28c-0.13-0.09-0.28-0.17-0.43-0.25
	h0.01c0.92,0.28,1.82,0.63,2.68,1.07c2.4,1.22,4.49,3.04,5.93,5.3c0.41,0.64,0.76,1.3,1.05,1.99c0.46,1.1,0.79,2.25,0.98,3.44
	C39.79,23.85,39.81,25.31,39.63,26.74z"/>
</svg>
