<svg version="1.1" id="Layer_1" xmlns="http://www.w3.org/2000/svg" xmlns:xlink="http://www.w3.org/1999/xlink" x="0px" y="0px"
	 viewBox="0 0 50 50" style="enable-background:new 0 0 50 50;" xml:space="preserve">
<style type="text/css">
	.st0{fill:#FF2D20;}
</style>
<g>
	<polygon class="st0" points="17,17.23 17,29.02 18.98,27.88 21.7,26.31 21.7,14.52 19.73,15.66 	"/>
	<path class="st0" d="M16.29,30.24L16.29,30.24c-0.02-0.01-0.04-0.03-0.05-0.04c-0.01-0.01-0.03-0.02-0.04-0.03l0,0
		c-0.02-0.01-0.03-0.03-0.04-0.05c-0.01-0.02-0.03-0.03-0.04-0.05l0,0c-0.01-0.02-0.02-0.04-0.02-0.06
		c-0.01-0.02-0.02-0.03-0.02-0.05v0c0,0,0-0.05,0-0.07c0-0.02-0.01-0.05-0.01-0.05V17.22l-2.73-1.57l-1.97-1.13v18.24l10.34,5.95
		V33.3L16.29,30.24L16.29,30.24z"/>
	<polygon class="st0" points="21.23,13.7 16.53,11 11.83,13.7 16.53,16.41 	"/>
	<polygon class="st0" points="32.52,26.59 27.82,23.88 22.41,27 17.48,29.83 22.18,32.49 29.07,28.55 	"/>
	<path class="st0" d="M45,0H5C2.24,0,0,2.24,0,5V45c0,2.76,2.24,5,5,5H45c2.76,0,5-2.24,5-5V5C50,2.24,47.76,0,45,0z M39.58,23.34
		c0,0.17-0.09,0.32-0.24,0.41l-5.4,3.11v6.17c0,0.17-0.09,0.32-0.23,0.41l-11.29,6.5c-0.03,0.01-0.05,0.02-0.08,0.03
		c-0.01,0-0.02,0.01-0.03,0.01c-0.08,0.02-0.16,0.02-0.24,0c-0.01,0-0.02-0.01-0.04-0.02c-0.03-0.01-0.05-0.02-0.08-0.03l-11.29-6.5
		c-0.15-0.08-0.24-0.24-0.24-0.41V13.71c0-0.04,0.01-0.08,0.02-0.12c0-0.01,0.01-0.03,0.02-0.04c0.01-0.02,0.02-0.05,0.03-0.07
		c0.01-0.02,0.02-0.03,0.03-0.04c0.01-0.02,0.03-0.04,0.04-0.05c0.01-0.01,0.03-0.02,0.05-0.04c0.02-0.01,0.03-0.03,0.05-0.04h0.01
		l5.64-3.24c0.15-0.08,0.32-0.08,0.47,0l5.64,3.24h0c0.02,0.01,0.03,0.03,0.05,0.04c0.02,0.01,0.03,0.02,0.05,0.04
		c0.02,0.02,0.03,0.04,0.04,0.06c0.01,0.01,0.02,0.03,0.03,0.04c0.01,0.02,0.02,0.05,0.03,0.07c0,0.01,0.01,0.03,0.02,0.04
		c0.01,0.04,0.02,0.08,0.02,0.12v12.05l4.7-2.7V16.9c0-0.04,0.01-0.08,0.02-0.12c0-0.01,0.01-0.03,0.02-0.04
		c0.01-0.02,0.02-0.05,0.03-0.07c0.01-0.02,0.02-0.03,0.03-0.04c0.01-0.02,0.03-0.04,0.04-0.05c0.01-0.01,0.03-0.02,0.05-0.04
		c0.02-0.01,0.03-0.03,0.05-0.04h0.02l5.64-3.25c0.15-0.08,0.32-0.08,0.47,0l5.64,3.25c0.02,0.01,0.04,0.03,0.05,0.04
		c0.01,0.01,0.03,0.02,0.05,0.04c0.02,0.02,0.03,0.04,0.04,0.06c0.01,0.01,0.02,0.03,0.03,0.04c0.01,0.02,0.02,0.05,0.03,0.07
		c0.01,0.01,0.01,0.03,0.02,0.04h0c0.01,0.04,0.02,0.08,0.02,0.12V23.34z"/>
	<polygon class="st0" points="32.98,25.77 32.98,20.42 30.26,18.85 28.29,17.71 28.29,23.07 31.01,24.63 	"/>
	<polygon class="st0" points="22.64,33.3 22.64,38.72 33,32.76 33,27.39 30.31,28.93 	"/>
	<polygon class="st0" points="38.64,17.71 36.66,18.84 33.94,20.41 33.94,25.77 38.64,23.06 38.64,23.06 	"/>
	<polygon class="st0" points="33.46,14.19 28.76,16.9 33.46,19.6 38.16,16.9 	"/>
</g>
</svg>
