<svg version="1.1" id="Layer_1" xmlns="http://www.w3.org/2000/svg" xmlns:xlink="http://www.w3.org/1999/xlink" x="0px" y="0px"
	 viewBox="0 0 50 50" style="enable-background:new 0 0 50 50;" xml:space="preserve">
<style type="text/css">
	.st0{fill:#DF4F4F;}
</style>
<path class="st0" d="M45,0H5C2.24,0,0,2.24,0,5V45c0,2.76,2.24,5,5,5H45c2.76,0,5-2.24,5-5V5C50,2.24,47.76,0,45,0z M39.25,24.44
	c0,0,0.18,0.24-0.06,0.49c-0.24,0.24-0.55,0.03-0.55,0.03l-6.39-6.91L39.25,24.44z M24.43,38.62c-0.24,0.24-0.55,0.03-0.55,0.03
	l-6.39-6.91l6.99,6.39C24.49,38.13,24.67,38.37,24.43,38.62z M29.18,39.86c-0.48,0.52-1.11,0.07-1.11,0.07L13.97,24.74l15.32,14.08
	C29.29,38.82,29.66,39.34,29.18,39.86z M33.79,39.81c-0.69,0.74-1.59,0.11-1.59,0.11L12.03,18.16l21.93,20.16
	C33.95,38.32,34.48,39.06,33.79,39.81z M37.62,37.79c-0.69,0.74-1.59,0.11-1.59,0.11L9.53,9.83l0,0L37.78,36.3
	C37.78,36.3,38.31,37.05,37.62,37.79z M39.69,34.13c-0.69,0.74-1.59,0.11-1.59,0.11L17.92,12.49l21.93,20.16
	C39.85,32.64,40.38,33.39,39.69,34.13z M40.22,29.89c-0.48,0.52-1.11,0.07-1.11,0.07L25.01,14.77h0l15.32,14.08
	C40.33,28.85,40.7,29.37,40.22,29.89z"/>
</svg>
