<svg version="1.1" id="Layer_1" xmlns="http://www.w3.org/2000/svg" xmlns:xlink="http://www.w3.org/1999/xlink" x="0px" y="0px"
	 viewBox="0 0 50 50" style="enable-background:new 0 0 50 50;" xml:space="preserve">
<style type="text/css">
	.st0{fill:#13AA52;}
</style>
<g>
	<path class="st0" d="M24.8,32c0,0.8,0.5,2.9,0.9,3c0,0-0.3-13.1-0.6-13.1C24.8,21.9,24.8,32,24.8,32z"/>
	<path class="st0" d="M45,0H5C2.2,0,0,2.2,0,5v40c0,2.8,2.2,5,5,5h40c2.8,0,5-2.2,5-5V5C50,2.2,47.8,0,45,0z M27.1,35.1L27.1,35.1
		c-0.3,0.3-0.7,0.6-1,0.8l-0.1,0c-0.3,1.2-0.5,2.5-0.6,3.8h-0.6c-0.2-1.8-0.4-3.5-0.4-3.5l-0.1-0.1c-0.8-0.6-6.3-4.9-6-12.1
		c0.4-7.8,4.9-11.6,5.8-12.3c0.6-0.6,0.6-0.8,0.6-1.5c0,0,0,0.1,0,0.1c0,0,0.4,1.1,0.9,1.7c0.4,0.9,4.1,3.1,5.6,10
		c0.2,0.9,0.2,1.8,0.2,2.7C31.6,30.2,28.7,33.6,27.1,35.1z"/>
</g>
</svg>
