<svg version="1.1" id="Layer_1" xmlns="http://www.w3.org/2000/svg" xmlns:xlink="http://www.w3.org/1999/xlink" x="0px" y="0px"
	 viewBox="0 0 50 50" style="enable-background:new 0 0 50 50;" xml:space="preserve">
<style type="text/css">
	.st0{fill:#00678C;}
</style>
<g>
	<polygon class="st0" points="37.84,32.92 37.83,32.92 37.84,32.93 	"/>
	<path class="st0" d="M45,0H5C2.24,0,0,2.24,0,5V45c0,2.76,2.24,5,5,5H45c2.76,0,5-2.24,5-5V5C50,2.24,47.76,0,45,0z M40.18,39.61
		c-0.25-0.1-0.39-0.37-0.62-0.53c-0.45-0.31-0.91-0.68-1.36-0.96c-0.78-0.49-1.69-0.78-2.49-1.27l-1.32-0.94
		c-0.39-0.29-0.82-0.84-1.07-1.25c-0.14-0.23-0.16-0.49-0.33-0.65c0.04-0.39,0.54-0.39,0.84-0.51c1.07-0.45,2.34-0.62,3.99-0.57
		c-0.08-0.41-1.09-0.91-1.42-1.15c-0.66-0.47-1.36-0.96-2.06-1.39c-0.37-0.22-1.01-0.39-1.42-0.57c-0.56-0.23-1.79-0.45-2.1-0.88
		c-0.62-0.8-1.03-1.78-1.46-2.74c-0.43-0.98-0.97-2-1.4-3.01c-0.23-0.49-0.33-0.92-0.58-1.39c-1.5-2.88-3.73-5.3-6.42-6.99
		c-0.89-0.55-1.87-1.06-2.96-1.41c-0.62-0.18-1.36-0.09-2.02-0.07h-0.43c-0.37-0.26-0.68-0.65-0.97-0.85
		c-0.64-0.43-1.28-0.72-2.04-1.02c-0.27-0.12-1.03-0.41-1.3-0.18c-0.16,0.04-0.25,0.1-0.29,0.27c-0.16,0.25-0.02,0.61,0.08,0.84
		c0.31,0.65,0.74,1.04,1.13,1.6c0.35,0.49,0.78,1.04,1.03,1.57c0.54,1.15,0.78,2.41,1.28,3.56c0.19,0.43,0.47,0.92,0.74,1.31
		c0.23,0.31,0.64,0.53,0.76,0.92c0.25,0.41-0.37,1.76-0.52,2.19c-0.54,1.68-0.43,4.01,0.19,5.46c0.25,0.57,0.47,1.25,1.13,1.41
		c0.04-0.05,0-0.03,0.08-0.05c0.14-1.12,0.18-2.21,0.58-3.09c0.23-0.55,0.68-0.94,0.99-1.39c0.21,0.12,0.21,0.49,0.33,0.74
		c0.27,0.63,0.55,1.33,0.88,1.96c0.68,1.31,1.44,2.58,2.3,3.72c0.29,0.41,0.7,0.86,1.07,1.23c0.16,0.14,0.46,0.6,0.47,0.61
		c0,0,0,0,0.01,0h0.12v0.06c-0.04-0.01-0.08-0.04-0.12-0.06h0c0,0,0,0,0,0c-0.57-0.26-0.96-0.82-1.43-1.16
		c-0.96-0.7-2.11-1.74-2.77-2.74l-0.87-1.7V28.3c-0.12,0.17-0.08,0.33-0.14,0.58c-0.27,1.03-0.06,2.2-0.99,2.57
		c-1.06,0.43-1.84-0.7-2.18-1.21c-1.06-1.71-1.35-4.6-0.6-6.92c0.17-0.52,0.19-1.13,0.48-1.54c-0.06-0.37-0.35-0.47-0.52-0.7
		c-0.29-0.39-0.53-0.84-0.77-1.28c-0.44-0.84-0.75-1.85-1.08-2.76c-0.15-0.37-0.19-0.74-0.33-1.09c-0.25-0.54-0.7-1.07-1.06-1.54
		c-0.47-0.68-1.86-2-1.3-3.34c0.87-2.12,3.92-0.51,5.1,0.23c0.29,0.19,0.62,0.58,0.95,0.72l1.55,0.08c0.97,0.23,1.88,0.41,2.65,0.84
		c3.56,2.08,5.88,4.2,8.02,7.7c0.46,0.74,0.68,1.54,1.06,2.35l1.7,3.58c0.27,0.54,0.48,1.13,0.85,1.59
		c0.14,0.21,0.56,0.27,0.81,0.39c0.68,0.35,1.51,0.62,2.15,1.03c1.2,0.74,2.36,1.63,3.42,2.53c0.39,0.35,0.66,0.84,1.04,1.21v0.1
		l-1.03,0.29c-0.72,0.18-1.36,0.14-2.06,0.33c-0.43,0.12-0.97,0.28-1.42,0.33l0.04,0.05c0.27,0.76,1.71,1.37,2.37,1.82
		c0.8,0.57,1.54,1.27,2.14,2.07l0.62,0.59c0.14,0.21,0.18,0.47,0.29,0.65V39.61z M16.05,15.2h0.02v0.04c0,0,0,0.01,0,0.01
		c0.21-0.07,0.5-0.1,0.94-0.1v0c0,0.16,0.27,0.27,0.39,0.47c0.1,0.14,0.12,0.29,0.25,0.43c0,0.49-0.14,0.82-0.43,1.02l-0.04,0.05
		l-0.47-0.98c-0.2-0.27-0.47-0.5-0.63-0.89c0,0,0,0,0,0v-0.01C16.07,15.23,16.06,15.22,16.05,15.2z"/>
</g>
</svg>
