<svg version="1.1" id="Layer_1" xmlns="http://www.w3.org/2000/svg" xmlns:xlink="http://www.w3.org/1999/xlink" x="0px" y="0px"
	 viewBox="0 0 50 50" style="enable-background:new 0 0 50 50;" xml:space="preserve">
<style type="text/css">
	.st0{fill:#86D8D2;}
</style>
<g>
	<path class="st0" d="M30.15,19.19c-0.1-0.05-0.17-0.06-0.61-0.06c-0.46,0-0.5,0.01-0.62,0.07c-0.14,0.08-0.24,0.21-0.29,0.37
		c-0.02,0.07-0.03,1.46-0.03,3.94v3.83l0.93,1.43l0.93,1.43l0.01-5.27c0.01-3.67,0-5.3-0.02-5.38
		C30.4,19.39,30.29,19.26,30.15,19.19z"/>
	<path class="st0" d="M45,0H5C2.24,0,0,2.24,0,5V45c0,2.76,2.24,5,5,5H45c2.76,0,5-2.24,5-5V5C50,2.24,47.76,0,45,0z M32.25,38.22
		c-0.11,0.06-0.12,0.03-0.01-0.03c0.09-0.05,0.09-0.05,0.09-0.03C32.34,38.17,32.3,38.19,32.25,38.22z M32.48,38.09
		c-0.06,0.03-0.06,0.03-0.01-0.01c0.06-0.05,0.08-0.06,0.08-0.03C32.54,38.05,32.51,38.07,32.48,38.09z M32.62,38
		c-0.06,0.03-0.06,0.03-0.01-0.01c0.06-0.05,0.08-0.06,0.08-0.03C32.69,37.96,32.66,37.98,32.62,38z M32.77,37.91
		c-0.06,0.03-0.06,0.03-0.01-0.01c0.06-0.05,0.08-0.06,0.08-0.03C32.83,37.87,32.8,37.9,32.77,37.91z M32.92,37.83
		c-0.09,0.05-0.06,0.01,0.04-0.06c0.05-0.03,0.1-0.06,0.11-0.06C33.09,37.71,32.98,37.79,32.92,37.83z M39.82,27.29
		c-0.41,2.82-1.63,5.47-3.52,7.64c-0.89,1.02-2.01,2.01-3.07,2.7l-0.12,0.08l-2.37-3.59c-1.3-1.97-3.96-5.99-5.9-8.94
		s-3.56-5.39-3.61-5.43c-0.15-0.17-0.25-0.19-0.85-0.19c-0.51,0-0.55,0.01-0.67,0.06c-0.07,0.04-0.17,0.12-0.22,0.18l-0.08,0.11
		v5.86l-0.03,5.86l0.06,0.13c0.04,0.08,0.11,0.16,0.2,0.21l0.13,0.09h0.51c0.44,0,0.52-0.01,0.62-0.06
		c0.12-0.06,0.18-0.12,0.26-0.27c0.05-0.1,0.06-0.27,0.06-4.48c0.01-2.41,0.02-4.38,0.03-4.37c0.01,0,1.37,1.99,3.02,4.43l3,4.43
		l2.39,3.23c1.32,1.78,2.41,3.25,2.43,3.27c0.04,0.03-0.01,0.06-0.27,0.2c-1.68,0.86-3.38,1.35-5.39,1.58
		c-0.45,0.05-2.41,0.05-2.86,0c-1.16-0.13-2.19-0.34-3.16-0.65C14.99,37.62,11,32.9,10.18,27.29c-0.12-0.82-0.13-1.06-0.13-2.18
		c0-1.11,0.01-1.36,0.13-2.18c0.34-2.35,1.24-4.57,2.64-6.53c2.52-3.52,6.5-5.81,10.74-6.2c0.18-0.01,0.39-0.04,0.45-0.04
		c0.24-0.02,2.17,0.01,2.46,0.04c1.14,0.13,2.16,0.34,3.11,0.65c5.42,1.75,9.42,6.47,10.23,12.08c0.12,0.82,0.13,1.06,0.13,2.18
		S39.94,26.47,39.82,27.29z"/>
</g>
</svg>
