<svg version="1.1" id="Layer_1" xmlns="http://www.w3.org/2000/svg" xmlns:xlink="http://www.w3.org/1999/xlink" x="0px" y="0px"
	 viewBox="0 0 50 50" style="enable-background:new 0 0 50 50;" xml:space="preserve">
<style type="text/css">
	.st0{fill:#009438;}
</style>
<g>
	<path class="st0" d="M30.48,17.63c-0.85,0.08-1.45,0.76-1.45,1.64v8.3c-0.05-0.05-0.08-0.11-0.11-0.14l-7.26-8.7
		c-0.37-0.44-0.81-0.79-1.38-0.95c-0.6-0.19-1.2-0.25-1.8,0c-0.6,0.25-1.06,0.79-1.06,1.56v11.4c0,0.3,0.05,0.57,0.22,0.82
		c0.32,0.52,0.78,0.76,1.38,0.79c0.98,0.03,1.72-0.79,1.72-1.72v-8.2l0-0.01c0.03,0.03,0.06,0.06,0.06,0.08l6.9,8.27
		c0.25,0.27,0.44,0.57,0.71,0.82c0.5,0.45,1.13,0.72,1.8,0.76c0.46,0.03,0.9-0.03,1.31-0.25c0.55-0.3,0.85-0.77,0.85-1.42V19.05
		C32.26,18.25,31.55,17.49,30.48,17.63z"/>
	<path class="st0" d="M45,0H5C2.24,0,0,2.24,0,5V45c0,2.76,2.24,5,5,5H45c2.76,0,5-2.24,5-5V5C50,2.24,47.76,0,45,0z M37.85,32.03
		c0.01,0.25-0.11,0.48-0.33,0.6l-10.48,6.06c-0.55,0.33-1.1,0.65-1.66,0.95c-0.25,0.14-0.49,0.14-0.74,0l-12.17-7.01
		c-0.22-0.14-0.33-0.3-0.33-0.57v-7.04v0v-7.04c-0.01-0.25,0.13-0.49,0.35-0.6l12.14-7.01c0.22-0.14,0.46-0.16,0.68-0.03l12.2,7.04
		c0.21,0.12,0.34,0.35,0.33,0.6V32.03z"/>
</g>
</svg>
