<svg version="1.1" id="Layer_1" xmlns="http://www.w3.org/2000/svg" xmlns:xlink="http://www.w3.org/1999/xlink" x="0px" y="0px"
	 viewBox="0 0 50 50" style="enable-background:new 0 0 50 50;" xml:space="preserve">
<style type="text/css">
	.st0{fill:#8CC84B;}
</style>
<path class="st0" d="M45,0H5C2.24,0,0,2.24,0,5V45c0,2.76,2.24,5,5,5H45c2.76,0,5-2.24,5-5V5C50,2.24,47.76,0,45,0z M38.47,31.76
	c0,0.79-0.48,1.54-1.17,1.9l-10.45,5.89c-0.73,0.4-1.62,0.38-2.32-0.06l-3.14-1.81c-0.21-0.13-0.45-0.23-0.61-0.44
	c0.13-0.18,0.37-0.2,0.56-0.28c0.44-0.14,0.84-0.35,1.24-0.58c0.1-0.07,0.23-0.04,0.32,0.02l2.67,1.55
	c0.19,0.11,0.38-0.04,0.55-0.13l10.26-5.79c0.13-0.06,0.2-0.2,0.19-0.33V18.8c0.02-0.17-0.08-0.33-0.24-0.4L24.98,12
	c-0.13-0.09-0.31-0.09-0.45,0l-11.35,6.41c-0.15,0.07-0.26,0.23-0.24,0.4v12.57c-0.01,0.15,0.07,0.29,0.21,0.35l3.07,1.69
	c0.58,0.3,1.29,0.47,1.92,0.25c0.57-0.21,0.95-0.74,0.94-1.33l0-12.56c-0.01-0.19,0.17-0.34,0.35-0.32h1.7
	c0.19,0,0.33,0.2,0.31,0.38l0,12.64c0,1.12-0.45,2.34-1.47,2.9c-1.26,0.66-2.81,0.52-4.06-0.11l-3.16-1.78
	c-0.74-0.38-1.24-1.19-1.24-2.04V18.64c0.01-0.83,0.46-1.59,1.19-1.99l11.06-6.25c0.74-0.42,1.69-0.42,2.42,0l11.12,6.27
	c0.7,0.39,1.16,1.17,1.15,1.97V31.76z M31.7,27.37c-0.12-0.42-0.57-0.62-0.95-0.76c-1.94-0.61-4.05-0.39-5.97-1.09
	c-0.78-0.28-1.54-0.8-1.84-1.6c-0.42-1.13-0.23-2.54,0.66-3.41c0.85-0.87,2.1-1.2,3.28-1.32l0.02,0.02
	c1.63-0.09,3.38-0.06,4.85,0.74c1.14,0.62,1.77,1.91,1.79,3.17c-0.03,0.17-0.21,0.26-0.37,0.25c-0.47,0-0.95,0.01-1.42,0
	c-0.2,0.01-0.32-0.18-0.34-0.36c-0.14-0.61-0.47-1.2-1.04-1.5c-0.87-0.44-1.89-0.42-2.84-0.41c-0.7,0.04-1.44,0.1-2.03,0.51
	c-0.45,0.31-0.59,0.95-0.43,1.44c0.15,0.36,0.57,0.48,0.91,0.59c1.97,0.51,4.05,0.47,5.98,1.14c0.8,0.28,1.58,0.81,1.85,1.65
	c0.36,1.12,0.2,2.46-0.6,3.36c-0.65,0.74-1.59,1.13-2.53,1.36c-1.25,0.28-2.55,0.29-3.82,0.16c-1.19-0.14-2.44-0.45-3.36-1.26
	c-0.79-0.68-1.17-1.75-1.13-2.78c0.01-0.17,0.18-0.29,0.35-0.28h1.42c0.19-0.01,0.33,0.15,0.34,0.33c0.09,0.57,0.3,1.18,0.81,1.51
	c0.97,0.63,2.19,0.58,3.3,0.6c0.92-0.04,1.95-0.05,2.7-0.66C31.69,28.45,31.81,27.87,31.7,27.37z"/>
</svg>
