<svg version="1.1" id="Layer_1" xmlns="http://www.w3.org/2000/svg" xmlns:xlink="http://www.w3.org/1999/xlink" x="0px" y="0px"
	 viewBox="0 0 50 50" style="enable-background:new 0 0 50 50;" xml:space="preserve">
<style type="text/css">
	.st0{fill:#FF6C37;}
</style>
<path class="st0" d="M45,0H5C2.24,0,0,2.24,0,5V45c0,2.76,2.24,5,5,5H45c2.76,0,5-2.24,5-5V5C50,2.24,47.76,0,45,0z M32.63,16.72
	c-0.47,0.01-0.89,0.2-1.2,0.5l-8.99,8.99l-1.92-1.92C29.39,15.46,30.99,15.38,32.63,16.72z M22.81,26.54l1.96-1.96
	c-0.01-0.02-0.01-0.05-0.02-0.07v0c-0.01-0.03-0.01-0.05-0.01-0.08c0-0.1,0.05-0.18,0.12-0.24c0.05-0.03,0.1-0.05,0.16-0.05
	c0.05,0,0.1,0.02,0.14,0.04l6.6-6.6c0.23-0.24,0.55-0.39,0.91-0.39c0.69,0,1.25,0.56,1.25,1.25c0,0.38-0.17,0.73-0.45,0.96l0,0
	L24,27.72L22.81,26.54z M23.48,27.94l-2.22,0.48c-0.01,0-0.02,0-0.03,0c-0.05,0-0.09-0.03-0.11-0.07c-0.01-0.02-0.02-0.04-0.02-0.06
	c0-0.03,0.01-0.06,0.04-0.09l1.3-1.3L23.48,27.94z M17.82,27.01l2.37-2.37l1.78,1.77l-4,0.86c-0.01,0-0.02,0-0.04,0
	c-0.06,0-0.11-0.03-0.13-0.08c-0.01-0.02-0.02-0.05-0.02-0.08C17.77,27.08,17.79,27.04,17.82,27.01z M10.45,39.24
	c-0.08-0.01-0.14-0.07-0.14-0.15c0-0.01,0-0.01,0-0.02c0-0.04,0.02-0.07,0.04-0.09h0l1.91-1.91l2.47,2.47L10.45,39.24z M15.12,37.23
	L15.12,37.23l0.41,1.74c0,0.02,0.01,0.04,0.01,0.06c0,0.14-0.11,0.25-0.25,0.25c-0.07,0-0.14-0.03-0.18-0.08H15.1l-2.48-2.48
	l7.6-7.59l3.68-0.79l1.76,1.76c-2.53,2.23-6,4.44-10.3,6.6c-0.15,0.08-0.25,0.23-0.25,0.41C15.1,37.16,15.11,37.19,15.12,37.23z
	 M26.01,29.78L26.01,29.78l-1.7-1.69l9.49-8.33c0.09-0.08,0.17-0.16,0.24-0.25l0,0C33.75,22.22,29.95,26.06,26.01,29.78z
	 M35.99,17.81c-1.01,0-1.93-0.41-2.59-1.07h0l-0.01,0c-0.66-0.66-1.07-1.58-1.07-2.59c0-2.03,1.65-3.68,3.68-3.68
	c0.9,0,1.72,0.32,2.36,0.86l-0.01,0l-3.25,3.26c-0.04,0.04-0.07,0.1-0.07,0.17c0,0.07,0.03,0.13,0.07,0.17l2.52,2.52
	C37.15,17.67,36.59,17.81,35.99,17.81z M38.61,16.74c-0.16,0.16-0.34,0.3-0.54,0.43l-0.01,0.01h0l-2.44-2.44l3.1-3.1
	C40.05,13.1,40,15.35,38.61,16.74z"/>
</svg>
