<svg version="1.1" id="Layer_1" xmlns="http://www.w3.org/2000/svg" xmlns:xlink="http://www.w3.org/1999/xlink" x="0px" y="0px"
	 viewBox="0 0 50 50" style="enable-background:new 0 0 50 50;" xml:space="preserve">
<style type="text/css">
	.st0{fill:#336791;}
</style>
<g>
	<path class="st0" d="M33.09,18.21c-0.4,0.06-0.78,0.23-0.75,0.47c0.03,0.18,0.36,0.5,0.75,0.5c0.03,0,0.07,0,0.1-0.01
		c0.26-0.04,0.45-0.2,0.54-0.3c0.14-0.15,0.22-0.31,0.2-0.41C33.91,18.23,33.49,18.16,33.09,18.21z"/>
	<path class="st0" d="M22.43,19.56c0.04,0.01,0.07,0.01,0.11,0.01c0.42,0,0.79-0.32,0.83-0.56c0.04-0.3-0.39-0.5-0.81-0.56v0
		c-0.34-0.05-0.65,0-0.81,0.12c-0.09,0.07-0.12,0.14-0.12,0.2c-0.02,0.14,0.08,0.3,0.14,0.38C21.93,19.37,22.18,19.53,22.43,19.56z"
		/>
	<path class="st0" d="M45,0H5C2.24,0,0,2.24,0,5V45c0,2.76,2.24,5,5,5H45c2.76,0,5-2.24,5-5V5C50,2.24,47.76,0,45,0z M15.79,31.22
		c-1.12-0.37-2.42-2.74-3.56-6.49c-0.99-3.25-1.57-6.51-1.62-7.43c-0.14-2.9,0.56-4.91,2.09-6c2.49-1.76,6.58-0.71,8.22-0.17
		c-0.02,0.02-0.05,0.05-0.07,0.07c-2.7,2.72-2.63,7.38-2.63,7.66c0,0.11,0.01,0.27,0.02,0.48c0.05,0.78,0.13,2.24-0.1,3.89
		c-0.21,1.53,0.26,3.03,1.3,4.12c0.11,0.11,0.22,0.22,0.34,0.32c-0.46,0.49-1.47,1.59-2.54,2.88
		C16.49,31.45,15.97,31.27,15.79,31.22z M19.18,19.28c-0.01-0.11-0.01-0.21-0.02-0.29c0.39-0.35,2.22-1.33,3.52-1.03
		c0.59,0.14,0.96,0.54,1.11,1.24c0.78,3.6,0.1,5.11-0.44,6.31c-0.11,0.25-0.22,0.48-0.31,0.73l-0.07,0.19
		c-0.18,0.48-0.34,0.92-0.44,1.34c-0.89,0-1.76-0.38-2.41-1.07v0c-0.84-0.87-1.22-2.09-1.04-3.33
		C19.32,21.62,19.23,20.1,19.18,19.28z M24.49,30.2c-1.2,1.69-2.96,1.67-4.22,1.35c-0.26-0.06-0.49-0.18-0.63-0.27
		c0.11-0.05,0.32-0.13,0.67-0.2c1.71-0.35,1.97-0.6,2.55-1.33c0.13-0.17,0.28-0.36,0.49-0.59l0,0c0.31-0.35,0.45-0.29,0.71-0.18
		c0.21,0.09,0.41,0.35,0.49,0.63C24.58,29.74,24.63,30,24.49,30.2z M33.11,30.22c-0.07,0.89-0.57,5.07-0.83,6.55
		c-0.34,1.95-1.05,2.68-3.07,3.11v0c-2.09,0.45-2.83-0.62-3.32-1.84c-0.32-0.79-0.47-4.34-0.36-8.26c0-0.05-0.01-0.1-0.02-0.15
		c-0.01-0.09-0.03-0.19-0.06-0.28c-0.16-0.57-0.56-1.05-1.04-1.25c-0.19-0.08-0.54-0.22-0.96-0.12c0.09-0.37,0.24-0.78,0.41-1.23
		l0.07-0.19c0.08-0.21,0.18-0.43,0.28-0.67c0.57-1.26,1.35-2.99,0.5-6.9c-0.32-1.46-1.37-2.18-2.98-2.01
		c-0.96,0.1-1.84,0.49-2.28,0.71c-0.09,0.05-0.18,0.09-0.26,0.14c0.12-1.47,0.58-4.23,2.31-5.97c1.09-1.1,2.54-1.64,4.3-1.61
		c3.48,0.06,5.71,1.84,6.97,3.33c1.09,1.28,1.67,2.57,1.91,3.27c-1.76-0.18-2.96,0.17-3.57,1.04c-1.32,1.89,0.72,5.56,1.71,7.33
		c0.18,0.32,0.34,0.6,0.39,0.72c0.32,0.78,0.74,1.29,1.04,1.67c0.09,0.12,0.18,0.23,0.25,0.33C33.99,28.09,33.03,28.44,33.11,30.22z
		 M34.63,22.49c0.14,1.18,0.29,2.4-0.28,3.6c-0.09-0.17-0.18-0.34-0.25-0.51c-0.07-0.17-0.22-0.44-0.43-0.82
		c-0.82-1.47-2.74-4.92-1.76-6.32c0.29-0.42,1.04-0.85,2.9-0.62c-0.01,0.47-0.07,0.89-0.14,1.34c-0.07,0.48-0.15,0.97-0.17,1.57
		C34.49,21.3,34.56,21.9,34.63,22.49z M37.95,29.89c-0.55,0.25-1.46,0.44-2.33,0.48c-0.96,0.04-1.45-0.11-1.56-0.2
		c-0.05-1.11,0.36-1.22,0.8-1.35c0.07-0.02,0.14-0.04,0.2-0.06c0.04,0.03,0.08,0.07,0.13,0.1c0.77,0.51,2.15,0.56,4.09,0.16l0.02,0
		C39.03,29.26,38.58,29.59,37.95,29.89z M35.12,27.16c-0.04-0.05-0.08-0.1-0.11-0.14l-0.05-0.06c0.97-1.6,0.78-3.18,0.61-4.58
		c-0.07-0.58-0.13-1.12-0.12-1.63c0.02-0.54,0.09-1.01,0.16-1.45c0.09-0.55,0.17-1.13,0.15-1.8c0.02-0.07,0.03-0.15,0.02-0.25
		c-0.06-0.65-0.8-2.58-2.31-4.34c-0.82-0.96-2.02-2.03-3.66-2.75c0.71-0.15,1.67-0.28,2.75-0.26c2.74,0.06,4.9,1.08,6.43,3.04
		C40.16,14.43,38.87,21.27,35.12,27.16z"/>
</g>
</svg>
