<svg version="1.1" id="Layer_1" xmlns="http://www.w3.org/2000/svg" xmlns:xlink="http://www.w3.org/1999/xlink" x="0px" y="0px"
	 viewBox="0 0 50 50" style="enable-background:new 0 0 50 50;" xml:space="preserve">
<style type="text/css">
	.st0{fill:#CC0000;}
</style>
<path class="st0" d="M45,0H5C2.24,0,0,2.24,0,5V45c0,2.76,2.24,5,5,5H45c2.76,0,5-2.24,5-5V5C50,2.24,47.76,0,45,0z M32.67,14.95
	c0.99,0.28,1.38,0.47,1.52,0.55l-0.06,1.05c-0.5-0.2-1-0.39-1.52-0.56L32.67,14.95z M26.68,14.02l0.31,0.96h-0.16
	c-0.45,0-0.91,0.02-1.36,0.06l-0.3-0.92C25.69,14.05,26.19,14.02,26.68,14.02z M19.76,15.54l0.71,1.08c-0.41,0.2-0.8,0.44-1.21,0.69
	l-0.72-1.1C18.96,15.97,19.37,15.75,19.76,15.54z M13.43,20.31l1.11,0.97c-0.38,0.39-0.74,0.82-1.07,1.24l-1.21-1.03
	C12.63,21.09,13.02,20.7,13.43,20.31z M8.01,27.63l1.8,0.66c-0.25,0.58-0.58,1.35-0.78,1.88l-1.8-0.66
	C7.38,29.09,7.71,28.3,8.01,27.63z M21.36,34.68c-0.08-0.47-0.16-1.14-0.19-1.98l1.69,0.61c0.09,0.74,0.24,1.43,0.38,2.04
	L21.36,34.68z M21.41,28.73c0.13-0.56,0.27-1.14,0.47-1.72l1.13,0.89c-0.16,0.61-0.27,1.22-0.33,1.83L21.41,28.73z M24.44,24.81
	l-0.75-1.13c0.28-0.36,0.61-0.72,0.97-1.05l0.71,1.07C25.02,24.05,24.7,24.42,24.44,24.81z M27.95,21.83l-0.36-1.08
	c0.39-0.17,0.85-0.34,1.38-0.5l0.34,1.03C28.86,21.42,28.4,21.61,27.95,21.83z M34.12,21.04c-0.52-0.11-1.03-0.17-1.55-0.19
	l0.06-0.99c0.5,0.03,1.02,0.09,1.55,0.2L34.12,21.04z M42.23,23.32c-8.9-6.58-14.34-3.48-16.05-2.65
	c-7.84,4.37-5.47,15.17-5.47,15.17H8.32c0,0,0.45-4.64,3.75-10.13c3.29-5.49,8.9-9.64,13.48-10.05c9.08-0.91,17.23,7.23,17.23,7.23
	S42.51,23.08,42.23,23.32z"/>
</svg>
