<svg version="1.1" id="Layer_1" xmlns="http://www.w3.org/2000/svg" xmlns:xlink="http://www.w3.org/1999/xlink" x="0px" y="0px"
	 viewBox="0 0 50 50" style="enable-background:new 0 0 50 50;" xml:space="preserve">
<style type="text/css">
	.st0{fill:#61DAFB;}
</style>
<g>
	<path class="st0" d="M21.93,30.29c1.01,0.09,2.04,0.14,3.07,0.14c1.03,0,2.05-0.05,3.06-0.13c0.56-0.81,1.11-1.67,1.64-2.58
		c0.52-0.89,0.99-1.79,1.41-2.7c-0.43-0.91-0.9-1.82-1.41-2.71c-0.53-0.92-1.07-1.79-1.64-2.6c-1.01-0.09-2.04-0.14-3.07-0.14
		c-1.03,0-2.05,0.05-3.06,0.13c-0.56,0.81-1.11,1.67-1.64,2.58c-0.52,0.89-0.99,1.79-1.41,2.7c0.42,0.91,0.9,1.82,1.41,2.71
		C20.82,28.61,21.36,29.48,21.93,30.29z M24.99,21.89c1.72,0,3.11,1.39,3.11,3.11c0,1.72-1.39,3.11-3.11,3.11
		c-1.72,0-3.11-1.39-3.11-3.11C21.88,23.28,23.27,21.89,24.99,21.89z"/>
	<path class="st0" d="M31.9,26.85c-0.28,0.54-0.57,1.09-0.89,1.63c-0.31,0.54-0.65,1.07-0.98,1.59c0.96-0.14,1.9-0.32,2.79-0.54
		C32.57,28.66,32.25,27.75,31.9,26.85z"/>
	<path class="st0" d="M24.99,18.06c0.64,0,1.27,0.01,1.89,0.05c-0.61-0.8-1.24-1.52-1.87-2.17c-0.63,0.65-1.26,1.38-1.89,2.17
		C23.73,18.08,24.36,18.06,24.99,18.06z"/>
	<path class="st0" d="M30.04,19.93c0.33,0.52,0.67,1.06,0.98,1.61c0.31,0.54,0.6,1.09,0.88,1.64c0.37-0.91,0.68-1.82,0.94-2.7
		C31.95,20.26,31.01,20.07,30.04,19.93z"/>
	<path class="st0" d="M19.95,19.93c-0.96,0.14-1.9,0.32-2.79,0.54c0.25,0.88,0.56,1.78,0.92,2.68c0.28-0.54,0.57-1.09,0.89-1.63
		C19.3,20.98,19.62,20.45,19.95,19.93z"/>
	<path class="st0" d="M33.22,19.01c0.16-0.69,0.28-1.35,0.35-1.98c0.32-2.6-0.07-4.61-0.99-5.15c-0.2-0.12-0.47-0.18-0.78-0.18
		c-1.41,0-3.49,1.12-5.71,3.17c0.95,1,1.9,2.13,2.81,3.39C30.43,18.42,31.89,18.67,33.22,19.01z"/>
	<path class="st0" d="M45,0H5C2.24,0,0,2.24,0,5V45c0,2.76,2.24,5,5,5H45c2.76,0,5-2.24,5-5V5C50,2.24,47.76,0,45,0z M41.69,25
		c0,2.21-2.77,4.31-7.01,5.61c0.98,4.33,0.54,7.77-1.37,8.87c-0.44,0.26-0.96,0.38-1.52,0.38v-0.01c-1.87,0-4.32-1.33-6.79-3.64
		c-2.47,2.3-4.92,3.62-6.79,3.62v0.01c-0.57,0-1.09-0.12-1.54-0.38c-1.91-1.1-2.34-4.54-1.35-8.85c-4.23-1.31-6.99-3.39-6.99-5.6
		c0-2.21,2.77-4.31,7.01-5.61c-0.98-4.33-0.54-7.77,1.37-8.87c0.44-0.26,0.96-0.38,1.53-0.38c1.87,0,4.32,1.33,6.8,3.65
		c2.48-2.3,4.92-3.62,6.8-3.62c0.57,0,1.09,0.12,1.54,0.38c1.91,1.1,2.34,4.54,1.35,8.85C38.93,20.7,41.69,22.8,41.69,25L41.69,25z"
		/>
	<path class="st0" d="M19.95,30.07c-0.33-0.52-0.67-1.06-0.98-1.61c-0.31-0.54-0.6-1.09-0.88-1.63c-0.37,0.91-0.68,1.82-0.94,2.7
		C18.04,29.74,18.98,29.93,19.95,30.07z"/>
	<path class="st0" d="M33.21,31.01c-1.33,0.33-2.79,0.58-4.32,0.74c-0.92,1.26-1.87,2.4-2.83,3.4c2.22,2.06,5.71,3.19,5.71,3.19
		v-0.01c0,0,0.55-0.06,0.76-0.18c0.92-0.53,1.33-2.55,1.01-5.14C33.48,32.37,33.35,31.69,33.21,31.01z"/>
	<path class="st0" d="M25,31.94c-0.64,0-1.27-0.01-1.89-0.05c0.61,0.8,1.24,1.52,1.87,2.17c0.63-0.65,1.26-1.38,1.89-2.17
		C26.25,31.92,25.63,31.94,25,31.94z"/>
	<path class="st0" d="M36.19,21.56c-0.58-0.25-1.22-0.48-1.88-0.69c-0.39,1.33-0.9,2.72-1.53,4.14c0.63,1.41,1.13,2.79,1.51,4.12
		c0.67-0.21,1.31-0.44,1.91-0.69c2.41-1.03,3.96-2.37,3.96-3.44C40.15,23.93,38.59,22.58,36.19,21.56z"/>
	<path class="st0" d="M16.77,31.01c-0.16,0.68-0.27,1.34-0.35,1.97c-0.32,2.6,0.07,4.62,0.99,5.16c0.2,0.12,0.47,0.18,0.78,0.18
		v0.01c1.41,0,3.5-1.12,5.71-3.17c-0.95-1-1.9-2.14-2.81-3.39C19.56,31.59,18.1,31.34,16.77,31.01z"/>
	<path class="st0" d="M16.79,18.99c1.33-0.33,2.79-0.58,4.31-0.74c0.92-1.26,1.87-2.4,2.83-3.4c-2.22-2.06-4.29-3.19-5.71-3.19
		c-0.31,0.01-0.56,0.07-0.77,0.18c-0.92,0.53-1.33,2.55-1.01,5.14C16.52,17.63,16.64,18.31,16.79,18.99z"/>
	<path class="st0" d="M15.7,20.87c-0.67,0.21-1.31,0.44-1.9,0.69c-2.41,1.03-3.96,2.37-3.96,3.44s1.56,2.42,3.96,3.44
		c0.58,0.25,1.22,0.48,1.88,0.69c0.39-1.33,0.9-2.72,1.53-4.14C16.58,23.57,16.08,22.19,15.7,20.87z"/>
</g>
</svg>
