<svg version="1.1" id="Layer_1" xmlns="http://www.w3.org/2000/svg" xmlns:xlink="http://www.w3.org/1999/xlink" x="0px" y="0px"
	 viewBox="0 0 50 50" style="enable-background:new 0 0 50 50;" xml:space="preserve">
<style type="text/css">
	.st0{fill:#764ABC;}
</style>
<path class="st0" d="M45,0H5C2.24,0,0,2.24,0,5V45c0,2.76,2.24,5,5,5H45c2.76,0,5-2.24,5-5V5C50,2.24,47.76,0,45,0z M16.5,16.56
	c1.31-3.82,4.62-6.41,8.2-6.41c3.82,0,7.8,3.34,8.28,9.79c-0.6-0.2-1.47-0.48-1.99-0.6c-0.12-2.11-1.91-7.36-6.13-7.28
	c-1.51,0.04-3.74,0.76-4.9,2.23c-1.39,1.71-2.19,3.78-2.35,6.17c-0.24,3.18,0.44,6.13,2.07,8.84c0.08-0.04,0.2-0.04,0.28-0.04h0.08
	c1.19,0,2.19,0.96,2.23,2.15c0.04,1.23-0.92,2.27-2.15,2.31h-0.08c-1.19,0-2.19-0.96-2.23-2.15v0c-0.04-0.44,0.08-0.88,0.28-1.15
	C15.87,26.55,14.67,21.66,16.5,16.56z M17.5,39.69c-2.95,0-5.61-1.23-6.93-3.22C8.82,33.8,8.23,28.14,14,23.97
	c0.12,0.64,0.36,1.51,0.52,2.03c-0.76,0.56-1.95,1.67-2.71,3.18c-1.07,2.11-0.96,4.22,0.32,6.17c0.88,1.31,2.27,2.11,4.06,2.35
	c2.19,0.28,4.38-0.12,6.49-1.23c3.1-1.63,5.17-3.58,6.53-6.25c-0.36-0.36-0.6-0.88-0.64-1.47c-0.04-1.23,0.92-2.27,2.15-2.31h0.08
	c1.19,0,2.19,0.96,2.23,2.15c0.04,1.19-0.84,2.19-1.99,2.31c-2.19,4.5-6.05,7.52-11.15,8.52C19.09,39.61,18.3,39.69,17.5,39.69z
	 M39.95,35.63c-1.07,2.11-3.9,4.22-7.72,4.22c-1.67,0-3.42-0.44-5.13-1.23c0.56-0.4,1.35-1.04,1.79-1.43
	c0.8,0.36,2.31,0.84,3.9,0.84c2.47,0,4.34-1.15,5.45-3.26c0.72-1.39,0.76-3.03,0.08-4.7c-0.8-2.07-2.23-3.78-4.22-5.1
	c-2.59-1.71-5.45-2.59-8.48-2.59H24.9c-0.32,0.76-1.07,1.31-1.95,1.35h-0.08c-1.19,0-2.19-0.96-2.23-2.15
	c-0.04-1.23,0.92-2.27,2.15-2.31h0.08c0.84,0,1.59,0.48,1.95,1.19h0.64c5.1,0,9.55,1.95,12.58,5.49
	C41.02,29.34,41.1,33.32,39.95,35.63z"/>
</svg>
