<svg version="1.1" id="Layer_1" xmlns="http://www.w3.org/2000/svg" xmlns:xlink="http://www.w3.org/1999/xlink" x="0px" y="0px"
	 viewBox="0 0 50 50" style="enable-background:new 0 0 50 50;" xml:space="preserve">
<style type="text/css">
	.st0{fill:#CF649A;}
</style>
<g>
	<path class="st0" d="M20.6,27.36c-0.39,0.43-1.04,1.54-1.35,2.48c-0.61,1.85-0.35,3.73,0.09,3.84c0.5,0.14,1.34-2.34,1.73-3.3
		c0.25-0.6,1.21-3.29,1.01-3.66C21.91,26.44,21.23,26.67,20.6,27.36z"/>
	<path class="st0" d="M27.6,33.61c0,0-0.12,0.12-0.07,0.15c0.07,0.05,0.22-0.02,0.39-0.1c0.48-0.3,1.54-1.04,1.54-2.15v-0.09
		c-0.25,0.32-0.48,0.61-0.67,0.86C28.45,32.69,27.6,33.61,27.6,33.61z"/>
	<path class="st0" d="M13.76,31.29c0,0-0.03,0.02-0.08,0.05c-0.29,0.18-0.54,0.32-0.7,0.42c-0.73,0.46-1.83,1.2-2.68,2
		c-1.4,1.32-1.68,3.15-0.95,3.57c0.68,0.4,2.28-0.07,3.41-1.31c1.2-1.3,1.69-2.96,1.17-4.84C13.88,31.22,13.82,31.26,13.76,31.29z"
		/>
	<path class="st0" d="M45,0H5C2.24,0,0,2.24,0,5V45c0,2.76,2.24,5,5,5H45c2.76,0,5-2.24,5-5V5C50,2.24,47.76,0,45,0z M42.89,33.89
		c-0.21,0.03-0.32,0.04-0.35-0.12c-0.02-0.11,0.05-0.16,0.29-0.31c0.24-0.15,0.96-0.65,1.09-1.54c0.13-0.9-0.55-3.04-3.98-3.44
		c-1.6-0.19-2.86,0.04-3.83,0.44c0.18,0.46,0.31,0.95,0.33,1.44c0.04,1.07-0.7,1.87-1.47,2.44c-0.45,0.33-0.93,0.56-1.34,0.69
		c-0.32,0.14-0.76,0.28-1.06,0.22c-0.67-0.14-1.03-0.73-0.57-2.05c0.25-0.71,0.97-1.79,2.11-2.73c-0.26-0.54-0.56-1.09-0.7-1.59
		c-0.29-0.99-0.38-1.59-0.38-1.59s-0.94,1.96-2.16,3.74c-0.07,0.11-0.14,0.21-0.21,0.31c0.24,0.56,0.43,1.14,0.46,1.74
		c0.05,1.08-0.42,1.89-1.2,2.46c-0.42,0.31-0.86,0.52-1.25,0.66c-0.25,0.11-0.74,0.29-1.45,0.33c-0.39,0.03-0.76,0-0.97-0.15
		c-0.29-0.22-0.32-0.49-0.17-0.85c0.12-0.31,1.07-1.38,1.85-2.32c0.22-0.26,0.42-0.53,0.61-0.77l-0.01-0.01c0,0,0.14-0.19,0.37-0.51
		c-0.29-0.63-0.66-1.27-0.83-1.85c-0.29-0.99-0.38-1.59-0.38-1.59s-0.96,2.46-1.95,4.42c-0.77,1.52-1.51,2.84-1.51,2.84v0.01
		c-0.03,0.05-0.06,0.1-0.09,0.15c-0.03,0.06-0.05,0.08-0.05,0.08v-0.01c0,0-0.85,1.13-1.42,1.13c-1.58,0-1-3.22-1-3.22
		s-0.46,1.19-0.99,2.22c-0.42,0.84-0.81,1.54-1.66,1.54c-0.24,0-0.63-0.01-0.95-0.31c-0.73-0.69-1.29-2.46-1.18-3.81
		c0.09-1.16,0.27-1.95,0.52-2.62c-0.44,0.24-0.94,0.52-1.45,0.82l-0.79,0.46l0.02,0.05c0.66,1.26,0.83,4.01-0.59,6.14
		c-1.43,2.12-4.07,3.41-6.65,2.69c-0.83-0.23-2.08-1.95-1-4.35c0.96-2.12,4.78-4.11,5.78-4.61c0.08-0.05,0.18-0.1,0.28-0.15
		c-2.01-1.75-7.02-4.12-7.72-7.76c-0.2-1.02,0.28-3.47,3.29-6.28c2.53-2.37,6.05-4.18,9.3-5.33c5.46-1.94,11.23-0.8,12.12,2.69
		c0.87,3.42-2.1,7.51-5.91,8.99c-3.4,1.31-6.21,1.1-7.36,0.73c-1.31-0.43-2.08-1.3-2.27-1.78c-0.08-0.19-0.2-0.52,0-0.63
		c0.12-0.07,0.17-0.05,0.5,0.31c0.32,0.35,1.57,1.27,3.97,1c6.28-0.7,10.07-5.58,8.87-8.21c-0.84-1.84-5.68-2.66-11.73,0.35
		c-7.38,3.67-7.78,6.71-7.84,7.86c-0.17,3.17,3.91,4.83,6.12,7.19l0.08,0.09c0.42-0.22,0.86-0.47,1.28-0.7
		c1.11-0.61,2.16-1.18,2.66-1.45c0.78-1.13,2.35-2.38,3.5-2.38c1.82,0,1.2,2.62,1.2,2.62s0.04-0.12,0.08-0.12
		c0.05,0,0.25-0.35,0.81-0.14c0.58,0.21,0.45,0.62,0.45,0.66c0.01,0.08-0.69,2.41-0.97,3.9c-0.13,0.71-0.05,1.23-0.02,1.23
		c0.05,0,0.29-0.38,0.29-0.38v-0.01c0,0,0.07-0.15,0.21-0.41c0.02-0.03-0.14,0.25,0.02-0.05c0.16-0.31,0.39-0.76,0.64-1.34
		c0.5-1.12,2.43-5.41,2.59-5.89c0.17-0.48,0.25-0.97,0.33-1.18c0.08-0.21,0.76-0.37,1.56-0.36c0.8,0.01,0.87,0.35,0.88,0.42
		c0,0.08-0.39,1.02-0.47,1.68c-0.09,0.66,0,1,0.07,1.56c0.05,0.37,0.28,0.83,0.55,1.36c0.83-1.35,2.28-3.92,2.42-4.65
		c0.1-0.49,0.25-0.97,0.33-1.18c0.08-0.21,0.76-0.37,1.56-0.36c0.8,0.01,0.87,0.35,0.88,0.42c0,0.08-0.39,1.02-0.47,1.68
		c-0.08,0.66,0,1,0.07,1.56c0.06,0.48,0.43,1.12,0.8,1.85c1-0.49,2.2-0.83,3.58-0.83c3.57-0.02,5.59,2.29,5.5,4.42
		C44.7,33.16,43.18,33.85,42.89,33.89z"/>
	<path class="st0" d="M33.5,31.18c-0.42,0.9-0.43,1.18-0.31,1.27c0.6-0.22,1.59-0.73,1.6-2.12c0.01-0.21-0.04-0.43-0.12-0.66
		C34.04,30.23,33.67,30.82,33.5,31.18z"/>
</g>
</svg>
