<svg version="1.1" id="Layer_1" xmlns="http://www.w3.org/2000/svg" xmlns:xlink="http://www.w3.org/1999/xlink" x="0px" y="0px"
	 viewBox="0 0 50 50" style="enable-background:new 0 0 50 50;" xml:space="preserve">
<style type="text/css">
	.st0{fill:#68BD45;}
</style>
<g>
	<path class="st0" d="M28.39,19.78c-3.08,0.73-5.8,0.13-8.65,1.23c-6.51,2.5-6.4,10.25-2.82,11.99l0.21,0.11
		c0,0,5.26-1.05,8.17-2.12c4.25-1.57,8.92-5.44,10.45-9.94c-0.83,4.68-4.83,9.17-8.87,11.23c-2.15,1.1-3.82,1.34-7.35,2.57
		c-0.43,0.16-0.77,0.31-0.77,0.31c0.9-0.15,1.79-0.2,1.79-0.2c5.03-0.24,12.87,1.41,16.55-3.48c3.74-4.98,1.65-13.02-0.08-18.16
		C35.48,16.54,31.68,19,28.39,19.78z"/>
	<path class="st0" d="M16.72,34.15c-0.55-0.44-1.35-0.36-1.79,0.19c-0.44,0.55-0.36,1.35,0.19,1.79c0.55,0.44,1.35,0.36,1.79-0.19
		C17.35,35.39,17.27,34.59,16.72,34.15C16.72,34.15,16.72,34.15,16.72,34.15z"/>
	<path class="st0" d="M45,0H5C2.24,0,0,2.24,0,5V45c0,2.76,2.24,5,5,5H45c2.76,0,5-2.24,5-5V5C50,2.24,47.76,0,45,0z M39.77,26.02
		c-0.22,3.14-1.44,6.13-3.46,8.53c-5.3,6.29-14.69,7.09-20.97,1.79l-0.55-0.49c-0.1-0.1-0.21-0.2-0.31-0.3
		C8.68,29.73,8.7,20.3,14.52,14.5c5.83-5.8,15.25-5.78,21.06,0.04c0.64-0.87,1.17-1.82,1.59-2.81l0,0
		C39.07,17.43,40.18,22.23,39.77,26.02z"/>
</g>
</svg>
