<svg version="1.1" id="Layer_1" xmlns="http://www.w3.org/2000/svg" xmlns:xlink="http://www.w3.org/1999/xlink" x="0px" y="0px"
	 viewBox="0 0 50 50" style="enable-background:new 0 0 50 50;" xml:space="preserve">
<style type="text/css">
	.st0{fill:#FF9800;}
</style>
<path class="st0" d="M45,0H5C2.24,0,0,2.24,0,5V45c0,2.76,2.24,5,5,5H45c2.76,0,5-2.24,5-5V5C50,2.24,47.76,0,45,0z M35.94,24.26
	c0.33,0.13,0.57,0.45,0.58,0.82v0v7.09v0c0,0.04-0.01,0.09-0.01,0.13l0,0c-0.05,0.32-0.27,0.58-0.56,0.7l-0.01,0l-21.88,6.94
	c-0.05,0.02-0.1,0.03-0.16,0.03c-0.23-0.01-0.42-0.2-0.42-0.43c0-0.02,0-0.03,0-0.05l0,0v-7.09c0.01-0.37,0.24-0.69,0.57-0.82
	l0.01,0l9.29-2.94l-9.29-2.95c-0.23-0.09-0.4-0.26-0.5-0.47l0-0.01c-0.05-0.08-0.08-0.17-0.08-0.28c0-0.01,0-0.01,0-0.02
	c0,0,0,0,0,0v-7.14c0,0,0-0.01,0-0.01c0-0.1,0.03-0.2,0.08-0.28c0,0,0,0,0,0l0,0c0,0,0,0,0,0c0.1-0.22,0.27-0.39,0.49-0.47l0.01,0
	l21.88-6.94c0.04-0.02,0.1-0.03,0.15-0.03c0.24,0,0.43,0.19,0.43,0.43c0,0.02,0,0.04,0,0.05v7.09c-0.01,0.37-0.24,0.69-0.57,0.82
	l-0.01,0l-9.2,2.92L35.94,24.26z"/>
</svg>
