<svg version="1.1" id="Layer_1" xmlns="http://www.w3.org/2000/svg" xmlns:xlink="http://www.w3.org/1999/xlink" x="0px" y="0px"
	 viewBox="0 0 50 50" style="enable-background:new 0 0 50 50;" xml:space="preserve">
<path d="M45,0H5C2.24,0,0,2.24,0,5V45c0,2.76,2.24,5,5,5H45c2.76,0,5-2.24,5-5V5C50,2.24,47.76,0,45,0z M37.48,14.66
	c-1.02,0.04-1.73-0.57-1.76-1.5c-0.01-0.34,0.08-0.64,0.31-0.99c0.23-0.45,0.28-0.5,0.27-0.69c-0.02-0.59-0.91-0.61-1.15-0.6
	c-3.32,0.11-4.19,4.59-4.9,8.23l-0.35,1.92c1.91,0.28,3.27-0.06,4.03-0.55c1.07-0.69-0.3-1.4-0.13-2.19c0.18-0.8,0.9-1.19,1.48-1.21
	c0.81-0.02,1.39,0.82,1.37,1.68c-0.03,1.41-1.9,3.35-5.65,3.27c-0.46-0.01-0.88-0.04-1.27-0.09l-0.71,3.9
	c-0.63,2.96-1.47,6.99-4.48,10.52c-2.59,3.07-5.21,3.55-6.38,3.59c-2.2,0.07-3.66-1.1-3.71-2.66c-0.05-1.51,1.29-2.34,2.17-2.37
	c1.17-0.04,1.99,0.81,2.02,1.79c0.03,0.83-0.4,1.09-0.69,1.24c-0.19,0.15-0.48,0.31-0.47,0.65c0.01,0.15,0.16,0.48,0.65,0.47
	c0.93-0.03,1.55-0.49,1.98-0.8c2.14-1.78,2.96-4.89,4.04-10.55l0.22-1.37c0.37-1.84,0.78-3.89,1.4-5.94
	c-1.51-1.14-2.41-2.54-4.44-3.1c-1.39-0.38-2.24-0.06-2.84,0.7c-0.71,0.89-0.47,2.06,0.21,2.74L19.84,22
	c1.38,1.6,2.14,2.84,1.85,4.51c-0.45,2.67-3.63,4.72-7.39,3.56c-3.21-0.99-3.81-3.26-3.42-4.51c0.34-1.1,1.22-1.31,2.07-1.05
	c0.92,0.28,1.28,1.4,1.01,2.25c-0.03,0.09-0.08,0.24-0.17,0.45c-0.11,0.24-0.3,0.44-0.39,0.72c-0.21,0.67,0.71,1.15,1.36,1.35
	c1.44,0.44,2.84-0.31,3.19-1.47c0.33-1.07-0.34-1.81-0.62-2.1l-1.36-1.46c-0.62-0.69-1.99-2.62-1.32-4.79
	c0.26-0.83,0.8-1.72,1.59-2.31c1.66-1.24,3.46-1.44,5.18-0.95c2.22,0.64,3.29,2.11,4.68,3.25c0.77-2.27,1.85-4.5,3.47-6.38
	c1.46-1.71,3.42-2.95,5.67-3.03c0,0,0,0,0,0h0h0c2.25-0.07,3.94,0.94,4,2.55C39.24,13.28,38.85,14.62,37.48,14.66z"/>
</svg>
