<svg version="1.1" id="Layer_1" xmlns="http://www.w3.org/2000/svg" xmlns:xlink="http://www.w3.org/1999/xlink" x="0px" y="0px"
	 viewBox="0 0 50 50" style="enable-background:new 0 0 50 50;" xml:space="preserve">
<style type="text/css">
	.st0{fill:url(#SVGID_1_);}
</style>
<linearGradient id="SVGID_1_" gradientUnits="userSpaceOnUse" x1="0" y1="25" x2="50" y2="25">
	<stop  offset="0" style="stop-color:#2383AE"/>
	<stop  offset="1" style="stop-color:#6DD7B9"/>
</linearGradient>
<path class="st0" d="M45,0H5C2.24,0,0,2.24,0,5V45c0,2.76,2.24,5,5,5H45c2.76,0,5-2.24,5-5V5C50,2.24,47.76,0,45,0z M25,35.56
	c-7.04,0-7.92-5.28-11.45-6.16c-2.35-0.59-4.4,0.29-6.16,2.64C8.57,27.35,11.5,25,16.2,25c7.04,0,7.92,5.28,11.45,6.16
	c2.35,0.59,4.4-0.29,6.16-2.64C32.63,33.22,29.7,35.56,25,35.56z M33.8,25c-7.04,0-7.92-5.28-11.45-6.16
	c-2.35-0.59-4.4,0.29-6.16,2.64c1.17-4.7,4.11-7.04,8.8-7.04c7.04,0,7.92,5.28,11.45,6.16c2.35,0.59,4.4-0.29,6.16-2.64
	C41.43,22.65,38.5,25,33.8,25z"/>
</svg>
