<svg version="1.1" id="Layer_1" xmlns="http://www.w3.org/2000/svg" xmlns:xlink="http://www.w3.org/1999/xlink" x="0px" y="0px"
	 viewBox="0 0 50 50" style="enable-background:new 0 0 50 50;" xml:space="preserve">
<style type="text/css">
	.st0{fill:#3C99D6;}
</style>
<g>
	<polygon class="st0" points="32.48,31.79 32.48,18.21 23.53,25 	"/>
	<path class="st0" d="M45,0H5C2.24,0,0,2.24,0,5V45c0,2.76,2.24,5,5,5H45c2.76,0,5-2.24,5-5V5C50,2.24,47.76,0,45,0z M39.95,35.05
		c0,0.72-0.41,1.37-1.06,1.68l0,0l-6.15,2.96c-0.72,0.35-1.57,0.2-2.13-0.36L18.83,28.58l-5.13,3.89c-0.48,0.37-1.15,0.34-1.59-0.07
		l-1.64-1.5c-0.54-0.49-0.54-1.35,0-1.84L14.91,25l-4.45-4.06c-0.54-0.49-0.54-1.35,0-1.84l1.64-1.5c0.45-0.4,1.11-0.43,1.59-0.07
		l5.13,3.9l11.79-10.76c0.55-0.56,1.41-0.71,2.12-0.36l6.16,2.96c0.65,0.31,1.06,0.96,1.06,1.68V35.05z"/>
</g>
</svg>
