<svg version="1.1" id="Layer_1" xmlns="http://www.w3.org/2000/svg" xmlns:xlink="http://www.w3.org/1999/xlink" x="0px" y="0px"
	 viewBox="0 0 50 50" style="enable-background:new 0 0 50 50;" xml:space="preserve">
<style type="text/css">
	.st0{fill:#1C78C0;}
</style>
<path class="st0" d="M45,0H5C2.24,0,0,2.24,0,5V45c0,2.76,2.24,5,5,5H45c2.76,0,5-2.24,5-5V5C50,2.24,47.76,0,45,0z M25.69,10.25
	l12.19,6.89l-4.32,2.49l-7.87-4.33V10.25z M24.77,10.25v5.06l-7.87,4.33l-4.32-2.5L24.77,10.25z M11.94,18.41l4.12,2.38v8.57
	l-4.12,2.38V18.41z M24.77,39.57l-11.88-6.72l4.47-2.59l7.41,4.07V39.57z M24.77,32.93l-7.33-4.03v-7.52l7.33,4.23V32.93z
	 M17.76,20.47l7.33-4.03l7.33,4.03l-7.33,4.23L17.76,20.47z M33.02,21.37v7.53l-7.33,4.03v-7.32L33.02,21.37z M25.69,39.57v-5.23
	l7.4-4.07l4.48,2.59L25.69,39.57z M38.06,31.75l-4.12-2.38V20.8l4.12-2.38V31.75z"/>
</svg>
