<svg xmlns="http://www.w3.org/2000/svg" width="15" height="15" viewBox="0 0 15 15" fill="#eb0573">
  <path d="M3.97861 14.9765C3.10597 14.8428 2.38207 14.3898 1.90547 13.6791C1.72273 13.4067 1.55158 12.9971 1.49048 12.6862C1.43923 12.4256 1.4351 12.2999 1.4351 10.9871V9.66916H1.29962C1.06346 9.66916 0.824179 9.61416 0.617709 9.51404C0.295428 9.35692 0.0903828 9.03468 0.0226843 8.57881C-0.00769 8.37419 -0.00756506 8.16969 0.0230843 8.06657C0.116332 7.75258 0.615571 7.71145 0.739318 8.00782C0.755318 8.04657 0.763068 8.11532 0.763193 8.22144C0.763793 8.53444 0.812692 8.70143 0.934014 8.80531C1.02214 8.8803 1.12481 8.91155 1.28992 8.9128L1.4274 8.91355L1.43115 7.98557L1.4349 7.05747H7.46116H13.4874V7.98095V8.90455L13.5428 8.91705C13.5732 8.91705 13.6505 8.92955 13.7146 8.91705C14.0757 8.8908 14.2042 8.70831 14.2051 8.22219C14.2054 8.0547 14.2247 7.98195 14.2864 7.91583C14.4216 7.77083 14.7077 7.7732 14.8551 7.91583C14.9536 8.01457 14.9764 8.10607 14.9637 8.35144C14.9367 8.86968 14.7663 9.24405 14.4672 9.44229C14.2529 9.58416 14.0307 9.64791 13.7052 9.66091L13.4875 9.67341V10.978C13.4875 12.3202 13.4825 12.4424 13.4239 12.732C13.3422 13.1317 13.1442 13.5662 12.8961 13.8902C12.7971 14.0194 12.5706 14.2527 12.4412 14.3586C12.1233 14.6186 11.7536 14.8069 11.3617 14.9083C10.986 15.0058 11.1967 15.0008 7.48978 14.9995C4.70506 14.9995 4.09208 14.999 3.97861 14.9765ZM1.43517 6.02587V5.4835H3.97582H6.51649L6.54186 5.40351C6.57324 5.30351 6.65924 5.15839 6.72921 5.08626L6.78171 5.03251V4.63215V4.23178H7.46149H8.14127V4.63215V5.03251L8.19377 5.08626C8.26376 5.15876 8.34977 5.30401 8.38112 5.40351L8.4065 5.4835H10.9472H13.4878V6.02587V6.5681H7.46146H1.43508L1.43517 6.02587ZM3.7374 4.81914C3.64265 4.79539 3.55339 4.7304 3.49734 4.64615C3.39822 4.49653 3.3981 4.3719 3.49682 4.18266C3.59032 4.00354 3.62057 3.90541 3.63009 3.74979C3.64647 3.4833 3.58734 3.28005 3.33006 2.71857C3.09403 2.20358 3.05409 2.0877 3.0221 1.82496C2.96961 1.3936 3.14914 0.906106 3.50133 0.523989C3.63018 0.384242 3.77701 0.338619 3.9429 0.386867C4.0414 0.415617 4.15589 0.508115 4.20075 0.596488C4.23588 0.665236 4.24025 0.787483 4.2095 0.859232C4.19825 0.886731 4.15825 0.94298 4.12101 0.984729C4.00426 1.11648 3.95775 1.1831 3.90284 1.29772C3.83171 1.44622 3.81259 1.54847 3.82121 1.73309C3.82996 1.92221 3.88221 2.08583 4.06111 2.4862C4.21698 2.83506 4.27654 2.99181 4.32643 3.18456C4.4503 3.66279 4.41405 4.04729 4.20568 4.46828C4.13231 4.6164 4.04738 4.73815 3.9858 4.78327C3.92917 4.82452 3.82109 4.84039 3.7374 4.81914ZM5.45539 4.7004C5.38752 4.67915 5.26058 4.56265 5.21953 4.48465C5.17341 4.39715 5.17216 4.21841 5.21703 4.13166C5.4322 3.71554 5.44528 3.66954 5.44466 3.32968C5.44413 3.02931 5.42779 2.94406 5.27043 2.4207C5.09062 1.82271 5.05358 1.63784 5.05295 1.33535C5.05213 0.94498 5.14332 0.633112 5.35148 0.313744C5.51154 0.0681245 5.59947 0.000375983 5.75828 9.28416e-07C5.8669 -0.000249066 5.97616 0.0499999 6.05383 0.136248C6.12857 0.218746 6.15545 0.28412 6.15545 0.381368C6.15545 0.477615 6.13257 0.533114 6.0254 0.694235C5.82512 0.995229 5.78007 1.3181 5.87914 1.74284C5.89552 1.81284 5.95801 2.02733 6.01786 2.2187C6.19591 2.78769 6.24386 3.06068 6.22641 3.40605C6.21053 3.72104 6.14141 3.98291 5.9944 4.28441C5.8779 4.52353 5.79537 4.64102 5.71363 4.68427C5.64088 4.72302 5.54416 4.72915 5.45539 4.7004Z" fill="black"/>
</svg>