<svg xmlns="http://www.w3.org/2000/svg" width="19" height="15" viewBox="0 0 19 15" fill="#eb0573">
  <path d="M17.097 14.8057C16.251 15.2287 15.1229 14.9467 14.5589 14.1006L13.0078 12.1265H5.39349L3.84242 14.1006C3.13739 15.0877 1.86833 15.2287 0.881289 14.5236C0.176258 13.9596 -0.105755 13.1136 0.0352515 12.4085L1.02229 7.19132C1.30431 5.49924 2.85538 4.23019 4.54745 4.23019H8.49562V2.11509C8.49562 0.987043 9.34166 0 10.4697 0H14.8409C15.2639 0 15.5459 0.282012 15.5459 0.705031C15.5459 1.12805 15.2639 1.41006 14.8409 1.41006H10.6107C10.1877 1.41006 9.90569 1.69207 9.90569 1.97409V2.11509V4.23019H13.8539C15.5459 4.23019 17.097 5.49924 17.379 7.19132L18.3661 12.4085C18.5071 13.3956 18.084 14.3826 17.097 14.8057ZM7.08556 7.75534C7.08556 6.62729 6.09852 5.64025 4.97047 5.64025C3.84242 5.64025 2.85538 6.62729 2.85538 7.75534C2.85538 8.88339 3.84242 9.87043 4.97047 9.87043C6.09852 9.87043 7.08556 8.88339 7.08556 7.75534ZM15.5459 7.75534C15.5459 7.33232 15.2639 7.05031 14.8409 7.05031H14.1359V6.34528C14.1359 5.92226 13.8539 5.64025 13.4308 5.64025C13.0078 5.64025 12.7258 5.92226 12.7258 6.34528V7.05031H12.0208C11.5978 7.05031 11.3157 7.33232 11.3157 7.75534C11.3157 8.17836 11.5978 8.46037 12.0208 8.46037H12.7258V9.1654C12.7258 9.58842 13.0078 9.87043 13.4308 9.87043C13.8539 9.87043 14.1359 9.58842 14.1359 9.1654V8.46037H14.8409C15.2639 8.46037 15.5459 8.17836 15.5459 7.75534Z" fill="black"/>
</svg>