<svg xmlns="http://www.w3.org/2000/svg" width="12" height="15" viewBox="0 0 12 15" fill="#eb0573">
  <path d="M2.37159 13.8346C2.2462 14.3373 2.55147 14.8462 3.0536 14.9716C3.13007 14.9909 3.20653 14.9994 3.28211 14.9994C3.70193 14.9994 4.08395 14.7152 4.19089 14.2896L4.93032 11.3315L3.38407 9.78526L2.37159 13.8346ZM2.80781 8.089L4.01364 3.42767C4.0778 3.18099 3.92165 2.9311 3.66443 2.86928C2.37891 2.56108 1.0761 3.31078 0.754723 4.54415L0.0144052 7.419C-0.0497537 7.66567 0.106396 7.91557 0.363617 7.97738L2.22569 8.42415C2.4832 8.48567 2.74365 8.33568 2.80781 8.089ZM10.7811 4.68741H10.3123C10.0534 4.68741 9.84361 4.89717 9.84361 5.15615V5.62489H8.82556L7.45508 4.25441C7.13018 3.92893 6.69748 3.74993 6.23753 3.74993C5.44594 3.74993 4.75894 4.28605 4.56676 5.0542L3.7781 8.21C3.73888 8.36707 3.74098 8.53162 3.7842 8.68764C3.82743 8.84365 3.91031 8.98582 4.02478 9.10031L6.56242 11.638V14.0622C6.56242 14.5799 6.98224 14.9997 7.4999 14.9997C8.01757 14.9997 8.43738 14.5799 8.43738 14.0622V11.638C8.43738 11.1373 8.24227 10.6665 7.88808 10.3123L6.51643 8.94065C6.52082 8.926 6.53078 8.91457 6.53459 8.89934L7.11729 6.56823L7.77441 7.22535C7.95019 7.40113 8.18866 7.50015 8.43709 7.50015H9.84331V14.5313C9.84331 14.7902 10.0531 15 10.3121 15H10.7808C11.0398 15 11.2495 14.7902 11.2495 14.5313V5.15615C11.2498 4.89717 11.0401 4.68741 10.7811 4.68741ZM7.03116 2.81245C7.80781 2.81245 8.43738 2.18287 8.43738 1.40622C8.43738 0.629578 7.80781 0 7.03116 0C6.25452 0 5.62494 0.629578 5.62494 1.40622C5.62494 2.18287 6.25452 2.81245 7.03116 2.81245Z"/>
</svg>