<svg xmlns="http://www.w3.org/2000/svg" width="17" height="15" viewBox="0 0 17 15" fill="#eb0573">
  <path d="M8.33317 11.0001C9.80593 11.0001 10.9998 9.80617 10.9998 8.33341C10.9998 6.86066 9.80593 5.66675 8.33317 5.66675C6.86041 5.66675 5.6665 6.86066 5.6665 8.33341C5.6665 9.80617 6.86041 11.0001 8.33317 11.0001Z" fill="black"/>
  <path d="M5.83333 0L4.30833 1.66667H1.66667C0.75 1.66667 0 2.41667 0 3.33333V13.3333C0 14.25 0.75 15 1.66667 15H15C15.9167 15 16.6667 14.25 16.6667 13.3333V3.33333C16.6667 2.41667 15.9167 1.66667 15 1.66667H12.3583L10.8333 0H5.83333ZM8.33333 12.5C6.03333 12.5 4.16667 10.6333 4.16667 8.33333C4.16667 6.03333 6.03333 4.16667 8.33333 4.16667C10.6333 4.16667 12.5 6.03333 12.5 8.33333C12.5 10.6333 10.6333 12.5 8.33333 12.5Z" />
</svg>