<svg xmlns="http://www.w3.org/2000/svg" width="15" height="15" viewBox="0 0 15 15" fill="#eb0573">
  <path d="M14.534 7.12478C13.4617 10.6947 10.6346 13.5053 7.05481 14.5547L0.445312 7.9452C1.49467 4.36539 4.3053 1.53836 7.87524 0.466064L14.534 7.12478ZM8.78978 5.41476L5.41476 8.78978C5.1951 9.00945 5.1951 9.36555 5.41476 9.58523C5.63443 9.8049 5.99059 9.8049 6.21024 9.58523L9.58523 6.21023C9.80491 5.99058 9.80491 5.63442 9.58523 5.41476C9.36556 5.19509 9.00946 5.19509 8.78978 5.41476Z" fill="#212121"/>
  <path d="M0.14937 9.24023L5.75976 14.8506C5.16693 14.9489 4.55818 15 3.9375 15H3.1875C1.42709 15 0 13.5729 0 11.8125V11.0625C0 10.4418 0.05112 9.83303 0.14937 9.24023Z" fill="#212121"/>
  <path d="M9.1626 0.162517L14.8374 5.83735C14.9443 5.22009 14.9999 4.58529 14.9999 3.9375V3.1875C14.9999 1.42709 13.5728 0 11.8124 0H11.0624C10.4146 0 9.77985 0.05568 9.1626 0.162517Z" fill="#212121"/>
</svg>