<svg xmlns="http://www.w3.org/2000/svg" width="15" height="15" viewBox="0 0 15 15" fill="#eb0573">
  <path d="M7.5 0C3.35776 0 0 3.35776 0 7.5C0 11.6422 3.35776 15 7.5 15C11.6422 15 15 11.6422 15 7.5C15 3.35776 11.6422 0 7.5 0ZM12.3387 6.51714V6.72671C12.3387 6.90423 12.2383 7.06663 12.0795 7.14587L11.6141 7.37873C11.5402 7.41572 11.4578 7.43249 11.3753 7.42734C11.2928 7.42219 11.2132 7.39529 11.1445 7.3494L10.5937 6.98226C10.5343 6.94269 10.4667 6.91719 10.3959 6.90771C10.3252 6.89822 10.2532 6.905 10.1855 6.92752L10.1053 6.95413C9.812 7.05181 9.69224 7.40141 9.86371 7.65877L10.2641 8.25937C10.3509 8.38972 10.4973 8.46804 10.6539 8.46804H10.9022C11.1611 8.46804 11.371 8.67792 11.371 8.93679V9.27974C11.371 9.38105 11.338 9.47994 11.2772 9.56099L10.7105 10.3164C10.6675 10.3739 10.6382 10.4404 10.6249 10.5109L10.4949 11.2013C10.4761 11.3008 10.4256 11.3915 10.3509 11.4602C10.0643 11.7226 9.81046 12.0187 9.59486 12.342L9.20081 12.9333C9.12417 13.0482 9.02033 13.1425 8.89852 13.2077C8.77671 13.2729 8.64069 13.307 8.50252 13.3071C8.18468 13.3071 7.89405 13.1274 7.75191 12.8431C7.58623 12.5118 7.49998 12.1464 7.5 11.7759V10.872C7.5 10.6131 7.29012 10.4032 7.03125 10.4032H6.24859C5.81038 10.4032 5.39032 10.229 5.08034 9.91935C4.7706 9.60946 4.59656 9.18926 4.59647 8.75111V8.32591C4.59647 7.80605 4.84143 7.31643 5.25726 7.00433L6.09133 6.37863C6.37734 6.16416 6.72517 6.04818 7.08266 6.04808H7.10958C7.36603 6.04808 7.61915 6.10766 7.84839 6.22258L8.29355 6.44516C8.40484 6.50081 8.53337 6.50988 8.65131 6.47056L10.0821 5.99365C10.2735 5.92984 10.4026 5.75081 10.4026 5.54909C10.4026 5.29022 10.1927 5.08034 9.93387 5.08034H9.62873C9.50444 5.08034 9.38528 5.03105 9.29728 4.94304L9.088 4.73377C9.04448 4.69023 8.99281 4.6557 8.93594 4.63214C8.87907 4.60858 8.81811 4.59646 8.75655 4.59647H6.03327C5.77439 4.59647 5.56452 4.38659 5.56452 4.12772V3.99466C5.56452 3.77964 5.71089 3.59214 5.91956 3.53982L6.35655 3.43065C6.46966 3.40222 6.56825 3.33296 6.63296 3.23589L6.87732 2.86966C6.96411 2.73931 7.11048 2.66099 7.26714 2.66099H7.99929C8.25817 2.66099 8.46804 2.45111 8.46804 2.19224V1.53599C10.8638 1.92429 12.7881 3.72036 13.3648 6.04839H12.8075C12.5486 6.04839 12.3387 6.25827 12.3387 6.51714Z" fill="black"/>
</svg>