<svg xmlns="http://www.w3.org/2000/svg" width="15" height="15" viewBox="0 0 15 15" fill="#eb0573">
  <path d="M14.9999 0C13.4829 0.104297 2.82526 1.11915 2.08023 8.42612C1.98971 9.20717 1.93844 9.99175 1.90475 10.7769L7.1451 5.54182C7.32821 5.35872 7.62557 5.35872 7.80868 5.54182C7.99179 5.72493 7.99179 6.02171 7.80868 6.20482L0.206105 13.7998C-0.0687015 14.0743 -0.0687015 14.5196 0.206105 14.7941C0.480911 15.0686 0.926518 15.0686 1.20162 14.7941L2.87536 13.1221C4.10847 13.118 5.3407 13.048 6.56561 12.9065C8.13241 12.7471 9.408 12.131 10.4498 11.2501H7.49227L11.7928 9.81802C12.1224 9.38178 12.4189 8.91831 12.6849 8.43754H10.3077L13.429 6.87865C14.6569 3.8924 14.9469 0.76934 14.9999 0Z"/>
</svg>