<svg version="1.1" fill="#1A4674" xmlns="http://www.w3.org/2000/svg" xmlns:xlink="http://www.w3.org/1999/xlink"
	 viewBox="0 0 50 50" xml:space="preserve">
	<path d="M45,0H5C2.2,0,0,2.2,0,5v40c0,2.8,2.2,5,5,5h40c2.8,0,5-2.2,5-5V5C50,2.2,47.8,0,45,0z M26,40.1
		c-5.5,0-10.3-3-12.9-7.5c-1.3-2.2-2-4.7-2-7.4c0-8.2,6.7-14.9,14.9-14.9c5.5,0,10.3,3,12.9,7.4l-6.5,3.7c-1.3-2.2-3.7-3.7-6.4-3.7
		c-4.1,0-7.4,3.3-7.4,7.4c0,1.3,0.3,2.6,1,3.7c1.3,2.2,3.7,3.7,6.4,3.7c2.8,0,5.2-1.5,6.5-3.8v0l6.5,3.7
		C36.3,37.1,31.5,40.1,26,40.1z"/>
</svg>

