<svg version="1.1" fill="#690081" xmlns="http://www.w3.org/2000/svg" xmlns:xlink="http://www.w3.org/1999/xlink" viewBox="0 0 50 50" xml:space="preserve">
	<path class="st0" d="M45,0H5C2.2,0,0,2.2,0,5v40c0,2.8,2.2,5,5,5h40c2.8,0,5-2.2,5-5V5C50,2.2,47.8,0,45,0z M21.3,39.9
		c-8.3,0-15-6.7-15-15c0-8.3,6.7-15,15-15c4.7,0,9.1,2.2,11.9,5.9l-5.5,3.2c-1.6-1.8-4-2.8-6.4-2.8c-4.8,0-8.7,3.9-8.7,8.7
		c0,4.8,3.9,8.7,8.7,8.7c2.5,0,4.8-1,6.4-2.8l5.5,3.2C30.3,37.7,26,39.9,21.3,39.9z M43.7,23.7h-2.5v2.5h2.5v2.5h-2.5v2.5h-2.5
		v-2.5h-2.5v2.5h-2.5v-2.5h-2.5v-2.5h2.5v-2.5h-2.5v-2.5h2.5v-2.5h2.5v2.5h2.5v-2.5h2.5v2.5h2.5V23.7z"/>
</svg>
