<svg version="1.1" fill="#00ACD7" xmlns="http://www.w3.org/2000/svg" xmlns:xlink="http://www.w3.org/1999/xlink" viewBox="0 0 50 50" xml:space="preserve">
	<path d="M38.1,21.3c-2,0.4-3.2,1.7-3.7,3.7c-0.4,1.7,0.4,3.3,1.9,4c1.2,0.5,2.3,0.4,3.5-0.1c1.7-0.9,2.6-2.2,2.7-4c0-0.3,0-0.5-0.1-0.7C42.1,22,40.1,20.9,38.1,21.3z"/>
	<path d="M45,0H5C2.2,0,0,2.2,0,5v40c0,2.8,2.2,5,5,5h40c2.8,0,5-2.2,5-5V5C50,2.2,47.8,0,45,0z M13.4,26c0,0.1-0.1,0.2-0.2,0.2l-4.9,0c-0.1,0-0.1-0.1-0.1-0.1l0.3-0.6c0-0.1,0.1-0.1,0.2-0.1h4.5c0.1,0,0.1,0.1,0.1,0.2L13.4,26z M13.5,23.9c0,0.1-0.1,0.1-0.2,0.1h-10c-0.1,0-0.1,0-0.1-0.1l0.4-0.6c0-0.1,0.1-0.1,0.2-0.2h9.7c0.1,0.1,0.1,0.2,0.1,0.2L13.5,23.9z M6.3,22.1c-0.1,0-0.1,0-0.1-0.1l0.5-0.6c0-0.1,0.2-0.1,0.2-0.1h8c0.1,0,0.1,0.1,0.1,0.1l-0.4,0.6c0,0.1-0.2,0.1-0.2,0.1L6.3,22.1z M44.2,30.5c-1.4,1.4-3.1,2.3-5.1,2.7c-0.6,0.1-1.1,0.1-1.7,0.2c-1.9,0-3.7-0.6-5.2-1.9c-0.9-0.8-1.6-1.8-2-2.9c-0.2,0.4-0.5,0.8-0.8,1.2c-1.6,2.1-3.6,3.4-6.2,3.7c-2.1,0.3-4.1-0.1-5.9-1.4c-1.6-1.2-2.5-2.8-2.8-4.9c-0.3-2.4,0.4-4.5,1.9-6.4c1.6-2,3.6-3.3,6.1-3.8c2.1-0.4,4-0.1,5.8,1.1c1.2,0.8,2,1.8,2.5,3.1c0.1,0.2,0,0.3-0.2,0.4c-1.4,0.3-2.3,0.6-3.7,1c-0.3,0.1-0.3,0.1-0.6-0.2c-0.3-0.4-0.6-0.6-1-0.8c-1.4-0.7-2.7-0.5-4,0.3c-1.5,1-2.3,2.4-2.2,4.2c0,1.7,1.2,3.2,3,3.4c1.5,0.2,2.7-0.3,3.7-1.4c0.2-0.2,0.4-0.5,0.6-0.8c-0.8,0-1.8,0-4.2,0c-0.5,0-0.6-0.3-0.4-0.7c0.3-0.7,0.8-1.8,1.1-2.4c0.1-0.1,0.2-0.3,0.5-0.3c1,0,4.2,0,6.8,0c0.3-1,0.8-1.9,1.5-2.7c1.5-2,3.4-3.1,5.9-3.5c2.2-0.4,4.2-0.2,6,1.1c1.7,1.1,2.7,2.7,3,4.7C47,26.2,46.2,28.5,44.2,30.5z"/>
</svg>
