<svg version="1.1" fill="#6181B6" xmlns="http://www.w3.org/2000/svg" xmlns:xlink="http://www.w3.org/1999/xlink"
	 viewBox="0 0 50 50" xml:space="preserve">
	<path d="M9.6,21.6l-1.3,6.8c3.3,0,6,0.4,6.8-3.5C15.7,21.2,13.2,21.6,9.6,21.6z"/>
	<path d="M37.4,21.6L36,28.5c3.2,0,6,0.5,6.8-3.5C43.6,21.2,41.1,21.6,37.4,21.6z"/>
	<path d="M45,0H5C2.2,0,0,2.2,0,5v40c0,2.8,2.2,5,5,5h40c2.8,0,5-2.2,5-5V5C50,2.2,47.8,0,45,0z M7.7,31l-0.8,4.4H3.3
		L6.5,19h6.9c2.1,0,3.6,0.5,4.5,1.6c1.8,2.1,1.1,6.2-1.4,8.6C14.2,31.3,11.7,31,7.7,31z M26.9,31c1.5-7.7,1.8-8.4,1.2-8.9
		c-0.5-0.6-1.7-0.4-4.6-0.4L21.7,31h-3.5l3.2-16.4h3.5L24,19c3.1,0,5.9-0.2,7.3,1c1.4,1.3,0.7,3-0.8,11H26.9z M44.3,29.2
		C42,31.3,39.7,31,35.5,31l-0.8,4.4h-3.6L34.3,19h6.9c2.1,0,3.6,0.5,4.5,1.6C47.5,22.7,46.8,26.8,44.3,29.2z"/>
</svg>
