<svg version="1.1" xmlns="http://www.w3.org/2000/svg" xmlns:xlink="http://www.w3.org/1999/xlink"
	 viewBox="0 0 50 50" xml:space="preserve">
	<path fill="#3B77A0" d="M29.2,37.3c0.7,0,1.3-0.6,1.3-1.4c0-0.7-0.6-1.3-1.3-1.3c-0.7,0-1.3,0.6-1.3,1.3C27.8,36.7,28.4,37.3,29.2,37.3z"/>
	<path fill="#3B77A0" d="M20.8,12.1c-0.7,0-1.3,0.6-1.3,1.4c0,0.7,0.6,1.3,1.3,1.3c0.7,0,1.3-0.6,1.3-1.3C22.2,12.7,21.6,12.1,20.8,12.1z"/>
	<path fill="#3B77A0" d="M44,0H5C2.2,0,0,2.2,0,5v40c0,2.8,2.2,5,5,5h39c2.8,0,5-2.2,5-5V5C49,2.2,46.8,0,44,0z M16.8,31.9h-2.5
		c-2.1,0-3.3-1.5-3.8-3.6c-0.7-2.8-0.7-4.5,0-7.2c0.6-2.4,2.4-3.6,4.4-3.6h9.8v-0.9h-7.1v-2.7c0-2.1,0.5-3.2,3.6-3.7
		c2.1-0.4,4.7-0.4,7.1,0c1.9,0.3,3.6,1.8,3.6,3.7v6.8c0,2-1.6,3.6-3.6,3.6h-7.1c-2.4,0-4.4,2.1-4.4,4.4
		C16.8,28.7,16.8,31.9,16.8,31.9z M39.3,28.3c-0.7,2.2-1.5,3.6-3.5,3.6H25.1v0.9h7.1v2.7c0,2-1.8,3.1-3.6,3.6
		c-2.7,0.8-4.9,0.7-7.1,0c-1.9-0.6-3.6-1.7-3.6-3.6v-6.8c0-1.9,1.6-3.6,3.6-3.6h7.1c2.4,0,4.4-2.1,4.4-4.5v-3.1h2.7
		c2.1,0,3,1.5,3.5,3.6C40,23.9,40.1,26.1,39.3,28.3z"/>
	<path fill="#FFED6A" d="M29.2,37.3c0.7,0,1.3-0.6,1.3-1.4c0-0.7-0.6-1.3-1.3-1.3c-0.7,0-1.3,0.6-1.3,1.3C27.8,36.7,28.4,37.3,29.2,37.3z"/>
	<path fill="#FFED6A" d="M45,0h-8.1c-2.8,0-5,2.2-5,5v6.1c0,0.5-0.1,1-0.2,1.5c0.2,0.4,0.3,0.8,0.3,1.3v6.8c0,2-1.6,3.6-3.6,3.6h-7.1
		c-2.4,0-4.4,2.1-4.4,4.4v3.2l0,0V45c0,2.8,2.2,5,5,5H45c2.8,0,5-2.2,5-5V5C50,2.2,47.7,0,45,0z M39.3,28.3
		c-0.7,2.2-1.5,3.6-3.5,3.6H25.1v0.9h7.1v2.7c0,2-1.8,3.1-3.6,3.6c-2.7,0.8-4.9,0.7-7.1,0c-1.9-0.6-3.6-1.7-3.6-3.6v-6.8
		c0-1.9,1.6-3.6,3.6-3.6h7.1c2.4,0,4.4-2.1,4.4-4.5v-3.1h2.7c2.1,0,3,1.5,3.5,3.6C40,23.9,40.1,26.1,39.3,28.3z"/>
</svg>
