<svg version="1.1" fill="#D91204" xmlns="http://www.w3.org/2000/svg" xmlns:xlink="http://www.w3.org/1999/xlink"
	 viewBox="0 0 50 50" xml:space="preserve">
	<path d="M45,0H5C2.2,0,0,2.2,0,5v40c0,2.8,2.2,5,5,5h40c2.8,0,5-2.2,5-5V5C50,2.2,47.8,0,45,0z M40.5,14.1
		c-3.1-0.8-6-1.7-9-2.5c0,0,0-0.1,0-0.1c2.5-0.6,5-1.1,7.5-1.7C39.5,11.2,40,12.6,40.5,14.1z M20.1,23.6c3.6,1.2,7.1,2.3,10.7,3.5
		c-4.6,2.9-9,5.8-13.6,8.8C18.1,31.7,19.1,27.7,20.1,23.6z M16.6,34C16.6,34,16.6,34,16.6,34c-1.1-2.5-2.1-5-3.1-7.6
		c1.8-1,3.7-1.9,5.6-2.9C18.3,27,17.5,30.5,16.6,34z M20.2,22.7c2.2-2,4.4-4,6.6-6c1.3,3.2,2.6,6.2,3.9,9.4
		C27.2,25,23.8,23.9,20.2,22.7z M27.7,16.7c3.8-0.6,7.7-1.3,11.6-1.9c-2.6,3.8-5.1,7.6-7.6,11.5C30.3,23.1,29.1,19.9,27.7,16.7z
		M27.4,15.9c0.4-0.8,0.7-1.5,1.1-2.1c0.2-0.4,0.4-0.8,0.6-1.3c0.2-0.4,0.4-0.5,0.8-0.4c2.4,0.6,4.7,1.2,7.1,1.9
		c0.3,0.1,0.6,0.2,0.8,0.3C34.4,14.8,31,15.3,27.4,15.9z M34.7,9.6C34.7,9.7,34.7,9.7,34.7,9.6c-0.7,0.2-1.3,0.4-2,0.5
		c-1.1,0.2-2.1,0.5-3.2,0.7c-0.7,0.2-1.2,0.1-1.9-0.3C30.1,10.3,32.4,9.9,34.7,9.6z M12.5,22.6c1.2-2,2.7-3.7,4.5-5.3
		c0.8-0.7,1.5-1.5,2.3-2.1c0.8-0.6,1.6-1.2,2.5-1.8c1.2-0.7,2.5-1.4,3.7-2.1c0.2-0.1,0.5-0.1,0.7-0.1c0.6,0.2,1.3,0.5,1.9,0.7
		c-0.6,1.3-1.3,2.5-1.9,3.7c-0.1,0.2-0.2,0.3-0.4,0.4c-2,1.9-4,3.8-6.1,5.6c-0.3,0.3-0.6,0.5-1,0.7c-1.8,0.9-3.5,1.8-5.3,2.7
		c-0.4,0.2-0.7,0.1-0.9-0.2c-0.3-0.4-0.9-0.7-0.9-1.1C11.8,23.4,12.3,23,12.5,22.6z M11.2,24.9c0.4,0.4,0.9,0.8,1.3,1.2
		c0.1,0.1,0.1,0.4,0.1,0.5c-1,2.3-2,4.7-3,7c0,0,0,0-0.1,0.1C10,30.7,10.6,27.8,11.2,24.9z M13.1,27.5c1.1,2.9,2.2,5.7,3.3,8.6
		c-2.3,0.1-4.6,0.1-7,0.2C10.7,33.4,11.9,30.5,13.1,27.5z M10.9,37.4C10.9,37.4,10.9,37.3,10.9,37.4c0.2-0.1,0.3-0.1,0.5-0.1
		c1.7,0,3.4-0.2,5.1-0.1c1.4,0,2.9,0.3,4.3,0.5c3.5,0.5,7,1,10.5,1.4c0.9,0.1,1.8,0.2,2.7,0.4C26.3,38.8,18.6,38.1,10.9,37.4z
		M18,36.5c4.6-2.9,9.1-5.8,13.6-8.8c2.3,3.9,4.6,7.7,6.9,11.6C31.7,38.3,24.9,37.4,18,36.5z M39.4,39c-0.2-0.3-0.4-0.5-0.6-0.8
		c-2.1-3.5-4.3-7.1-6.4-10.6c-0.1-0.2-0.1-0.5,0-0.6c2.7-4,5.3-8.1,8-12.1c0,0,0,0,0.1-0.1C40.2,22.9,39.8,30.9,39.4,39z"/>
</svg>
