<svg version="1.1" fill="#F04A02" xmlns="http://www.w3.org/2000/svg" xmlns:xlink="http://www.w3.org/1999/xlink" viewBox="0 0 50 50" xml:space="preserve">
	<path d="M27.7,29.9l-0.6-2.4c-0.4-1.5-1.5-1.6-1.8-1.6h-2.9v2.3H25c0.1,0,0.2,0,0.2,0.1v3.1c0,0.1-0.1,0.1-0.2,0.1h-9.2c0.3,0.4,0.6,0.8,1,1.2l1.9-0.4c0.4-0.1,0.9,0.2,1,0.6l0.5,2.2c3,1.4,6.5,1.4,9.5,0l0.5-2.2c0.1-0.4,0.5-0.7,1-0.6l2,0.4c0.4-0.4,0.7-0.8,1.1-1.2h-4.8C28.6,31.5,27.9,30.5,27.7,29.9z"/>
	<path d="M18.4,33.3c-0.5,0-0.9,0.4-0.9,0.9s0.4,0.9,0.9,0.9s0.9-0.4,0.9-0.9S18.8,33.3,18.4,33.3z"/>
	<path d="M31.6,33.3c-0.5,0-0.9,0.4-0.9,0.9c0,0.5,0.4,0.9,0.9,0.9s0.9-0.4,0.9-0.9C32.4,33.7,32,33.3,31.6,33.3z"/>
	<path d="M15.2,21.6c0-0.5-0.4-0.9-0.9-0.9s-0.9,0.4-0.9,0.9s0.4,0.9,0.9,0.9S15.2,22.1,15.2,21.6z"/>
	<path d="M17.7,20.8h-1.6l0.4,0.9c0.2,0.4,0,0.9-0.4,1.1l-1.9,0.9c-0.2,1.4,0,2.8,0.4,4.2h3.1V20.8z"/>
	<path d="M25,14.4c0.5,0,0.9-0.4,0.9-0.9c0-0.5-0.4-0.9-0.9-0.9s-0.9,0.4-0.9,0.9C24.1,14,24.5,14.4,25,14.4z"/>
	<path d="M35.6,20.8c-0.5,0-0.9,0.4-0.9,0.9s0.4,0.9,0.9,0.9s0.9-0.4,0.9-0.9S36.1,20.8,35.6,20.8z"/>
	<path d="M27,22.2c0-0.8-1.1-1-1.2-1h-3.4v1.9l3.1,0C26.1,23.1,27,22.9,27,22.2z"/>
	<path d="M45,0H5C2.2,0,0,2.2,0,5v40c0,2.8,2.2,5,5,5h40c2.8,0,5-2.2,5-5V5C50,2.2,47.8,0,45,0z M39.8,25.4l-1.3,0.8l0,0.4l1.1,1c0.2,0.2,0.1,0.6-0.1,0.7L38,28.8l-0.1,0.4l0.9,1.2c0.2,0.2,0,0.6-0.3,0.7l-1.5,0.2l-0.2,0.3l0.6,1.3c0.1,0.3-0.1,0.6-0.4,0.6l-1.5-0.1l-0.2,0.3l0.3,1.4c0.1,0.3-0.2,0.6-0.5,0.5l-1.4-0.3l-0.3,0.2l0.1,1.5c0,0.3-0.3,0.5-0.6,0.4l-1.3-0.6l-0.3,0.2L31,38.5c0,0.3-0.4,0.5-0.7,0.3l-1.2-0.9l-0.4,0.1l-0.5,1.4c-0.1,0.3-0.5,0.4-0.7,0.1l-1-1.1l-0.4,0l-0.8,1.3c-0.2,0.3-0.6,0.3-0.7,0l-0.8-1.3l-0.4,0l-1,1.1c-0.2,0.2-0.6,0.1-0.7-0.1l-0.5-1.4l-0.4-0.1l-1.2,0.9c-0.2,0.2-0.6,0-0.7-0.3l-0.2-1.5l-0.3-0.2l-1.3,0.6c-0.3,0.1-0.6-0.1-0.6-0.4l0.1-1.5l-0.3-0.2l-1.4,0.3c-0.3,0.1-0.6-0.2-0.5-0.5l0.3-1.4l-0.2-0.3l-1.5,0.1c-0.3,0-0.5-0.3-0.4-0.6l0.6-1.3l-0.2-0.3L11.5,31c-0.3,0-0.5-0.4-0.3-0.7l0.9-1.2l-0.1-0.4l-1.4-0.5c-0.3-0.1-0.4-0.5-0.1-0.7l1.1-1l0-0.4l-1.3-0.8c-0.3-0.2-0.3-0.6,0-0.7l1.3-0.8l0-0.4l-1.1-1c-0.2-0.2-0.1-0.6,0.1-0.7l1.4-0.5l0.1-0.4l-0.9-1.2c-0.2-0.2,0-0.6,0.3-0.7l1.5-0.2l0.2-0.3l-0.6-1.3c-0.1-0.3,0.1-0.6,0.4-0.6l1.5,0.1l0.2-0.3l-0.3-1.4c-0.1-0.3,0.2-0.6,0.5-0.5l1.4,0.3l0.3-0.2l-0.1-1.5c0-0.3,0.3-0.5,0.6-0.4l1.3,0.6l0.3-0.2l0.2-1.5c0-0.3,0.4-0.5,0.7-0.3l1.2,0.9l0.4-0.1l0.5-1.4c0.1-0.3,0.5-0.4,0.7-0.1l1,1.1l0.4,0l0.8-1.3c0.2-0.3,0.6-0.3,0.7,0l0.8,1.3l0.4,0l1-1.1c0.2-0.2,0.6-0.1,0.7,0.1l0.5,1.4l0.4,0.1l1.2-0.9c0.2-0.2,0.6,0,0.7,0.3l0.2,1.5l0.3,0.2l1.3-0.6c0.3-0.1,0.6,0.1,0.6,0.4l-0.1,1.5l0.3,0.2l1.4-0.3c0.3-0.1,0.6,0.2,0.5,0.5l-0.3,1.4l0.2,0.3l1.5-0.1c0.3,0,0.5,0.3,0.4,0.6l-0.6,1.3l0.2,0.3l1.5,0.2c0.3,0,0.5,0.4,0.3,0.7l-0.9,1.2l0.1,0.4l1.4,0.5c0.3,0.1,0.4,0.5,0.1,0.7l-1.1,1l0,0.4l1.3,0.8C40,24.8,40,25.2,39.8,25.4z"/>
	<path d="M33.8,22.7c-0.4-0.2-0.6-0.7-0.4-1.1l1-2.3c-1.6-2.7-4.3-4.7-7.3-5.2l-1.5,1.4c-0.3,0.3-0.8,0.3-1.1,0l-1.3-1.4c-2.3,0.4-4.4,1.6-6,3.4h11.4c0.3,0,1.3,0.1,2.3,0.8c0.7,0.5,1.7,1.4,1.7,2.8c0,1.4-1.1,2.4-2.2,3.1c0.9,0.7,1.4,1.1,1.7,2.9c0.1,0.3,0.7,0.6,1.3,0.6c0.6-0.1,1.3-0.3,1.3-1.5v-0.5c0-0.1,0.1-0.2,0.2-0.2h1.1c0-0.6,0-1.2,0-1.9L33.8,22.7z"/>
</svg>
