<svg version="1.1" fill="#00618A" xmlns="http://www.w3.org/2000/svg" xmlns:xlink="http://www.w3.org/1999/xlink"
	 viewBox="0 0 50 50" xml:space="preserve">

	<path d="M45,0H5C2.2,0,0,2.2,0,5v40c0,2.8,2.2,5,5,5h40c2.8,0,5-2.2,5-5V5C50,2.2,47.8,0,45,0z M38.1,35.3
		c0,2.6-5.9,4.7-13.1,4.7s-13.1-2.1-13.1-4.7v-5c0.9,0.7,2,1.2,3.2,1.7c2.6,0.9,6.1,1.5,9.9,1.5s7.3-0.5,9.9-1.5
		c1.2-0.4,2.3-1,3.2-1.7V35.3z M38.1,26.9c0,2.6-5.9,4.7-13.1,4.7s-13.1-2.1-13.1-4.7v-5.9c0.9,0.7,2,1.2,3.2,1.7
		c2.6,0.9,6.1,1.5,9.9,1.5s7.3-0.5,9.9-1.5c1.2-0.4,2.3-1,3.2-1.7V26.9z M38.1,17.5c0,2.6-5.9,4.7-13.1,4.7s-13.1-2.1-13.1-4.7v-2.8
		c0-2.6,5.9-4.7,13.1-4.7s13.1,2.1,13.1,4.7V17.5z"/>

</svg>
