<svg version="1.1" fill="#EF512E" xmlns="http://www.w3.org/2000/svg" xmlns:xlink="http://www.w3.org/1999/xlink" viewBox="0 0 50 50" xml:space="preserve">
	<path d="M45,0H5C2.2,0,0,2.2,0,5v40c0,2.8,2.2,5,5,5h40c2.8,0,5-2.2,5-5V5C50,2.2,47.8,0,45,0z M41.3,39.9L41.3,39.9
		c-2-3.9-5.7-2.9-7.6-1.9c-0.2,0.1-0.3,0.2-0.5,0.3l0,0c-3.9,2.1-9.2,2.2-14.5,0c-4.3-1.9-7.9-5-10.4-9c1.2,0.9,2.5,1.7,3.9,2.3
		c5.6,2.6,11.2,2.4,15.2,0c-5.6-4.3-10.4-10-14-14.6c-0.7-0.8-1.3-1.7-1.9-2.6c4.3,4,11.2,8.9,13.6,10.3c-5.2-5.5-9.8-12.3-9.6-12.1
		c8.2,8.3,15.8,12.9,15.8,12.9c0.3,0.2,0.5,0.3,0.7,0.4c0.2-0.4,0.3-0.8,0.4-1.2c1.3-4.8-0.2-10.3-3.5-14.8
		c7.6,4.6,12.1,13.2,10.3,20.6c0,0.2-0.1,0.3-0.1,0.5C42.8,35.8,41.7,40.8,41.3,39.9z"/>
</svg>
