<svg version="1.1" fill="#007ACC" xmlns="http://www.w3.org/2000/svg" xmlns:xlink="http://www.w3.org/1999/xlink" viewBox="0 0 50 50" xml:space="preserve">
	<path d="M45,0H5C2.2,0,0,2.2,0,5v40c0,2.8,2.2,5,5,5h40c2.8,0,5-2.2,5-5V5C50,2.2,47.8,0,45,0z M27.3,27.6c-1.8,0-3.6,0-5.4,0c-0.7,0-0.7,0-0.7,0.7c0,3,0,5.9,0,8.9c0,3,0,5.9,0,8.9c0,0.5-0.1,0.6-0.6,0.6c-1.2,0-2.3,0-3.5,0c-0.8,0-0.8,0-0.8-0.8c0-5.3,0-10.5,0-15.8c0-0.6,0-1.2,0-1.8c0-0.5-0.1-0.7-0.6-0.7c-1.8,0-3.5,0-5.3,0c-0.8,0-0.8,0-0.8-0.8c0-1,0-2,0-3c0-0.4,0.2-0.6,0.6-0.6c5.7,0,11.4,0,17.1,0c0.4,0,0.6,0.2,0.6,0.6c0,1.1,0,2.1,0,3.2C27.9,27.4,27.7,27.6,27.3,27.6zM44.4,44.4c-1.3,1.5-3.1,2.1-5,2.4c-0.5,0.1-1,0.1-1.4,0.1c-2.8,0-5.2-0.7-7.2-2.7c-0.6-0.6-1-1.3-1.5-1.9c-0.2-0.2-0.1-0.4,0.2-0.6c1.1-0.6,2.2-1.3,3.4-1.9c0.3-0.2,0.4,0,0.5,0.2c0.5,0.6,1,1.2,1.6,1.7c1.4,1.1,3,1.1,4.6,0.6c0.8-0.3,1.3-0.9,1.4-1.8c0.1-0.9-0.2-1.6-1-2c-1.1-0.6-2.3-1.2-3.5-1.7c-1.4-0.7-2.9-1.3-4-2.5c-1.5-1.5-2-3.3-1.9-5.4c0.1-2.6,2-5.2,5.4-5.7c2.5-0.4,4.9-0.3,6.9,1.6c0.6,0.5,1,1.2,1.5,1.8c0.2,0.2,0.2,0.4-0.1,0.6c-1,0.7-2.1,1.4-3.1,2.1c-0.3,0.2-0.4,0.1-0.6-0.1c-0.1-0.2-0.2-0.3-0.3-0.5c-0.8-1.1-2.2-1.5-3.4-1.1c-1.4,0.5-1.8,2.3-0.7,3.3c0.6,0.5,1.3,0.9,2,1.2c1.4,0.7,2.8,1.3,4.1,2c1.8,0.9,3.1,2.3,3.5,4.3C46.2,40.4,46,42.6,44.4,44.4z"/>
</svg>
