
<svg version="1.1" fill="#0074BD" id="Calque_1" xmlns="http://www.w3.org/2000/svg" xmlns:xlink="http://www.w3.org/1999/xlink" x="0px" y="0px"
	 viewBox="0 0 50 50" style="enable-background:new 0 0 50 50;" xml:space="preserve">
<path class="st0" d="M45,0H5C2.2,0,0,2.2,0,5v40c0,2.8,2.2,5,5,5h40c2.8,0,5-2.2,5-5V5C50,2.2,47.8,0,45,0z M28,23.2
	c1.7,2.4-2,4.3-2,4.3s1.9-1.5,0.4-3.2c-4.9-5.7,5.4-8.3,5.4-8.3C25.2,19.8,26.4,20.9,28,23.2z M21.5,19.5c2.1-3.1,7.8-4.6,6.5-9.6
	c0,0,3.1,3.1-3,7.9c-4.9,3.9-1.1,6.1,0,8.6C22.2,23.8,20.1,21.5,21.5,19.5z M16.9,27.6c2.6-1.3,4.7-1.1,4.7-1.1s-5.5,1.3-1.9,1.8
	c1.5,0.2,4.5,0.2,7.2-0.1c2.3-0.2,4.5-0.6,4.5-0.6s-0.8,0.3-1.4,0.7C24.5,29.7,13.8,29.1,16.9,27.6z M21.9,34.1
	c2.4,0.3,3.6,0.2,6.2-0.3c0.5,0.3,1.1,0.6,1.7,0.8c-5.9,2.5-13.2-0.1-8.8-1.4C20.8,33.3,20.1,33.8,21.9,34.1z M20.3,29.9
	c0,0-1.3,1,0.7,1.2c2.5,0.3,4.6,0.3,8.1-0.4c0.4,0.3,0.8,0.6,1.2,0.8C23.2,33.5,15.2,31.6,20.3,29.9z M18.7,35.5c0,0-0.4,0-1,0.1
	c-0.6,0.1-2.7,0.8-1.6,1.3c3,1.3,13.8,1,17.2,0c1.8-0.5,0.9-1.2,0.9-1.2c3.1,1.4-6.8,4.2-18.8,2.3C11,37.2,17.5,34.7,18.7,35.5z
	 M22.2,39.9c-3.6-0.2-4.3-0.8-4.3-0.8c3.4,0.6,9.1,0.7,13.7-0.2c4.1-0.8,4.5-1.7,4.5-1.7C35.9,39.7,27.6,40.2,22.2,39.9z M31.3,32.1
	c0,0,0.1-0.1,0.1-0.2c5.7-2.9,3-5.8,1.2-5.4c-0.2,0-0.4,0.1-0.6,0.2c0.1-0.1,0.3-0.3,0.5-0.3C36.1,25.1,38.9,30.1,31.3,32.1z"/>
</svg>
