<svg version="1.1" fill="#FFDF00" xmlns="http://www.w3.org/2000/svg" xmlns:xlink="http://www.w3.org/1999/xlink" x="0px" y="0px"
	 viewBox="0 0 50 50" style="enable-background:new 0 0 50 50;" xml:space="preserve">
	<g>
		<path class="st0" d="M45,0H5C2.2,0,0,2.2,0,5v40c0,2.8,2.2,5,5,5h40c2.8,0,5-2.2,5-5V5C50,2.2,47.8,0,45,0z M19.4,47
			c-3.9,0-6.2-2-7.4-4.5l4-2.4c0.8,1.4,1.5,2.5,3.2,2.5c1.6,0,2.6-0.6,2.3-3.1V23.3h4.4v16.2C26.8,44.6,23.8,47,19.4,47z M38.4,47
			c-4.6,0-7.5-2.2-9-5l4-2.3c1.1,1.7,2.4,3,4.9,3c2,0,3.4-1,3.4-2.4c0-1.7-1.3-2.3-3.6-3.3l-1.2-0.5C33.3,35,31,33.1,31,29.1
			c0-3.7,2.8-6.5,7.2-6.5c3.1,0,5.4,1.1,7,3.9L41.4,29c-0.8-1.5-1.8-2.1-3.2-2.1s-2.4,0.9-2.4,2.1c0,1.5,0.9,2.1,3,3l1.2,0.5
			c4.2,1.8,6.6,3.6,6.6,7.8C46.6,44.5,43.1,47,38.4,47z"/>
	</g>
</svg>
